<?xml version="1.0"?>
<svg width="12000" height="12000" xmlns="http://www.w3.org/2000/svg" xmlns:svg="http://www.w3.org/2000/svg" version="1.1">
 <metadata id="metadata15">image/svg+xmlCombined Shape</metadata>

 <!-- Generator: Sketch 60.1 (88133) - https://sketch.com -->
 <title id="title2">Combined Shape</title>
 <desc id="desc4">Created with Sketch.</desc>
 <g class="layer">
  <title>Layer 1</title>
  <g id="svg_32">
   <defs fill="#aaffff" id="svg_13" stroke-width="2">
    <style fill="#aaffff" id="svg_31" stroke-width="2">.cls-1{fill:#165c7d;}.cls-2{fill:#fff;}.cls-3{fill:url(#linear-gradient);}.cls-4{fill:url(#linear-gradient-2);}.cls-5{fill:#856d20;}.cls-6{fill:url(#linear-gradient-3);}.cls-7{fill:#007e8f;}.cls-8{fill:#326c39;}</style>
   </defs>
   <path class="cls-3" d="m5653.07,5349.93a1869.27,1869.27 0 0 1 -1373.08,599.07a1666.91,1666.91 0 0 1 -170.35,-7.99a2029.35,2029.35 0 0 1 -1210.75,-51.46a2027.04,2027.04 0 0 0 3634.51,-1234.75a2075.07,2075.07 0 0 0 -12.58,-268.67a2039.62,2039.62 0 0 1 -867.75,963.8z" fill="#aaffff" id="svg_8" stroke-width="2" transform="matrix(1 0 0 1 0 0)"/>
   <path class="cls-4" d="m4595.53,2221.88a1881.85,1881.85 0 0 1 1371.93,1028.95a2024.77,2024.77 0 0 1 552.23,1143.29a2028.2,2028.2 0 0 0 -3076.59,-2434.05c48,0 96.02,0 144.04,0a2021.33,2021.33 0 0 1 1008.39,261.81z" fill="#aaffff" id="svg_6" stroke-width="2"/>
   <g id="svg_40">

    <path d="m4294.16,352.56c28.82,311.13 -64.76,632.19 -256.57,881.14c-3.03,4.1 -4.08,9.47 -2.69,14.46c100.79,355.99 -27.7,773.6 -312.47,1015.53l-106.67,113.75c-2.91,3.11 -4.42,7.43 -4.22,11.88c16.29,308.04 -134.65,611.52 -384.58,773.07l-156.13,100.89c-3.18,2.13 -5.61,5.61 -6.51,9.62c-0.89,3.93 -0.28,8.17 1.67,11.67l0.33,0.6l6.38,11.21l-0.27,0l498.29,921.06c4.79,8.85 7.35,19.15 7.35,29.54c0,30.66 -21.74,55.97 -48.49,56.42l-248.18,0.37c-26.39,0 -50.56,-15.3 -64.56,-40.89l-85.34,-157.85c-0.2,-0.37 -0.42,-0.84 -0.55,-1.29l-212.72,-392.48c-2.98,-5.52 -8.65,-8.18 -14.34,-6.81c-225.74,58.31 -456.04,87.92 -684.41,87.92c-233.77,0 -469.02,-30.81 -699.32,-91.7c-5.34,-1.37 -11.58,1.57 -14.48,6.96l-294.66,555.08c-14.13,25.69 -38.24,40.97 -64.62,40.97l-2.85,0l-250.19,-0.37c-26.88,-0.37 -48.62,-25.76 -48.62,-56.42c0,-10.38 2.56,-20.6 7.26,-29.46l130.64,-240.93c0.28,-0.52 0.57,-0.99 0.9,-1.36l364.49,-678.85l-0.97,0l6.64,-11.73c2.01,-3.5 2.63,-7.82 1.72,-11.75c-0.89,-4.08 -3.25,-7.57 -6.49,-9.61l-156.13,-100.89c-249.92,-161.62 -400.86,-465.03 -384.51,-773.07c0.2,-4.47 -1.31,-8.79 -4.23,-11.9l-106.67,-113.75c-284.75,-241.84 -413.25,-659.45 -312.45,-1015.51c1.37,-5 0.42,-10.44 -2.69,-14.46c-191.81,-248.95 -285.32,-570.01 -256.52,-881.16c7.83,-57.78 30.21,-161.47 92.41,-206.69c8.32,-5.46 16,-9.93 23.42,-13.56c16.9,-8.34 34.71,-12.34 52.99,-11.52c2.56,0.15 4.92,1.52 6.38,3.87c110,173 322.16,441.11 708.53,736.65c195.88,149.88 347.72,250.84 474.62,333.78c0.69,0.38 34.28,22.34 34.28,22.34c36.57,23.85 69.74,45.51 100.99,66.41c55.9,40.3 105.36,81.49 149.48,122.17c103.97,99.37 323.27,347.35 355.89,697.63c0,0 37.41,278.41 -128.07,646.6l-298.33,597.11c-2.28,4.33 -2.64,9.71 -0.84,14.33c1.81,4.62 5.47,7.95 9.84,8.85c170.19,35.37 342.53,53.24 512.16,53.24c163.88,0 330.53,-16.74 495.26,-49.76c4.35,-0.9 8.08,-4.17 9.89,-8.85c1.81,-4.62 1.52,-10.01 -0.84,-14.31l-16.2,-32.35l-0.2,-0.37l-92.96,-185.57l0.13,0l-194.84,-389.45c-161.82,-364.52 -124.96,-639.39 -124.96,-639.39c31.78,-341.12 240.57,-585.16 347.52,-689.53c46.2,-43.33 98.7,-87.32 158.27,-130.27c28.72,-19.28 59.08,-39.08 92.19,-60.69l43.08,-28.09c126.9,-82.93 278.74,-183.96 474.62,-333.78c386.37,-295.53 598.53,-563.72 708.53,-736.63c1.46,-2.36 3.82,-3.8 6.38,-3.87c18.28,-0.75 36.09,3.18 52.99,11.52c7.4,3.63 15.1,8.1 23.42,13.56c62.2,45.21 84.57,148.9 92.39,206.69z" fill="#000000" id="svg_38" stroke-width="64.86"/>
   </g>
  </g>
 </g>
</svg>