<?xml version="1.0" encoding="UTF-8"?>
<!DOCTYPE svg PUBLIC "-//W3C//DTD SVG 1.1//EN" "http://www.w3.org/Graphics/SVG/1.1/DTD/svg11.dtd">
<!-- Creator: CorelDRAW 2021 (64 Bit) -->
<svg xmlns="http://www.w3.org/2000/svg" xml:space="preserve" width="687.694mm" height="443.645mm" version="1.1" style="shape-rendering:geometricPrecision; text-rendering:geometricPrecision; image-rendering:optimizeQuality; fill-rule:evenodd; clip-rule:evenodd"
viewBox="0 0 28401.32 18322.24"
 xmlns:xlink="http://www.w3.org/1999/xlink"
 xmlns:xodm="http://www.corel.com/coreldraw/odm/2003">
 <defs>
  <style type="text/css">
   <![CDATA[
    .fil1 {fill:#FF142B}
    .fil0 {fill:#004488;fill-rule:nonzero}
   ]]>
  </style>
 </defs>
 <g id="Camada_x0020_1">
  <metadata id="CorelCorpID_0Corel-Layer"/>
  <path id="path891" class="fil0" d="M8648.02 14781.01l-50.8 49.16c-818.85,834.26 -1766.62,1276.41 -2743.2,1276.41 -2038.48,0 -3518.23,-1529.25 -3518.23,-3639.29 0,-2106.22 1479.73,-3637.63 3518.23,-3637.63 976.6,0 1924.35,443.97 2743.2,1280.45l50.8 50.63 1310.98 -1585.21 -35.03 -43c-1090.25,-1288.37 -2398.44,-1915.56 -4006.66,-1915.56 -1613.8,0 -3089.02,543.11 -4152.21,1522.56 -1155.18,1060.67 -1765.09,2556.52 -1765.09,4327.75 0,1770.35 609.91,3269.89 1765.09,4330.86 1063.19,983.97 2538.41,1524.09 4152.21,1524.09 1608.23,0 2916.42,-626.85 4006.66,-1915.73l35.03 -40.02 -1310.98 -1585.48z"/>
  <polygon id="path893" class="fil0" points="11283.77,18106.51 13599.75,18106.51 13599.75,6800.66 11283.77,6800.66 "/>
  <path id="path895" class="fil0" d="M22671.65 15648.15c-617.88,376.23 -1192.92,565.38 -1709.3,565.38 -748.24,0 -1086.39,-394.93 -1086.39,-1274.6l-0.02 -5998.94 2358.71 0 0 -2129.01 -2358.71 0 0 -3517.87 -2270 1214.83 0 2303.05 -1958.25 0 0 2129.01 1958.27 0 0 6381.6c0,1738.65 1029.91,2926.41 2567.3,2957.3 1043.92,20.44 1673.22,-290.5 2055.42,-517.85l22.39 -16.64 557.58 -2179.94 -136.99 83.67 0 0.02z"/>
  <polygon id="path897" class="fil0" points="24589.85,18106.51 26907.36,18106.51 26907.36,6800.66 24589.85,6800.66 "/>
  <path id="path899" class="fil1" d="M28294.57 4794.59c-2120.06,-3002.96 -5640.85,-4794.59 -9223,-4794.59 -3580.69,0 -7102.19,1791.64 -9218.72,4794.57l-108.58 154.51 2669.42 0 29.58 -32.06c1816.89,-1875.24 4188.67,-2866.96 6628.28,-2866.96 2439.91,0 4811.22,991.71 6631.61,2866.96l29.54 32.06 2668.62 0 -106.75 -154.49z"/>
 </g>
</svg>
