<?xml version="1.0"?>
<svg width="2500" height="2500" xmlns="http://www.w3.org/2000/svg" xmlns:svg="http://www.w3.org/2000/svg" version="1.1">
 <metadata id="metadata15">image/svg+xmlCombined Shape</metadata>

 <!-- Generator: Sketch 60.1 (88133) - https://sketch.com -->
 <title id="title2">Combined Shape</title>
 <desc id="desc4">Created with Sketch.</desc>
 <g class="layer">
  <title>Layer 1</title>
  <metadata fill="#000000" id="svg_17">image/svg+xmlCombined Shape</metadata>

  <!-- Generator: Sketch 60.1 (88133) - https://sketch.com -->
  <desc fill="#000000" id="svg_14">Created with Sketch.</desc>
  <g id="selectorGroup1">
   <path fill="none" id="selectedBox1" stroke="#22C" stroke-dasharray="5,5"/>
  </g>
  <g id="svg_64">

   <path d="m1559,1972.27c-55.52,0 -91.97,-31.77 -91.97,-79.41c0,-39.71 26.97,-71.48 58.69,-71.48c12.68,0 23.78,4.75 23.78,17.44c0,7.94 -3.18,14.33 4.75,14.33c4.75,0 9.54,-4.75 9.54,-17.51c0,-15.66 -14.3,-28.58 -34.9,-28.58l-4.79,0c2.14,-4.45 3.24,-9.35 3.18,-14.31c0.29,-12.37 -9.8,-22.48 -22.18,-22.2c-11.1,0 -22.22,6.38 -22.22,14.31c-0.27,2 0.93,3.9 2.84,4.54c0.62,0.2 1.28,0.26 1.93,0.17c4.73,0 6.35,-4.71 14.28,-4.71c6.41,-0.77 11.84,4.67 11.06,11.07c0,11.13 -9.5,15.68 -17.43,20.63c-26.98,15.85 -43.34,45 -42.82,76.3c0,44.46 25.42,73.13 61.87,85.73l-23.78,36.58c-31.72,0 -47.64,23.87 -76.17,74.66c-2.72,-13.44 -14.83,-22.89 -28.53,-22.26c-17.49,0 -28.59,12.69 -28.59,30.2c-0.39,3.92 2.44,7.43 6.35,7.88c4.49,0.3 8.22,-3.4 7.94,-7.88c-0.62,-8.36 5.91,-15.52 14.3,-15.67c11.1,0 15.64,7.94 15.64,17.44c0.35,10.87 -3.02,21.52 -9.54,30.21c-33.28,53.97 -79.29,80.97 -118.94,80.97c-34.94,0 -55.55,-20.63 -55.55,-41.26c0,-19.08 11.11,-34.96 30.14,-34.96c12.7,0 20.62,7.94 20.62,19.02c0,9.56 -7.93,9.56 -7.93,14.33c0,3.18 3.18,4.75 6.36,4.75c9.54,0 15.65,-11.08 15.65,-22.21c0,-17.51 -14.3,-30.21 -34.9,-30.21c-17.08,-0.07 -32.6,9.9 -39.64,25.46c-7.08,-15.53 -22.59,-25.48 -39.66,-25.46c-20.86,0 -34.94,12.71 -34.94,30.21c0,11.13 6.35,22.21 15.64,22.21c3.12,0 6.31,-1.58 6.31,-4.75c0,-4.75 -7.93,-4.75 -7.93,-14.33c0,-11.08 7.93,-19.02 20.87,-19.02c18.98,0 30.1,15.67 30.1,34.96c0,20.63 -20.62,41.26 -55.52,41.26c-39.63,0 -85.65,-27.02 -118.99,-80.97c-6.36,-8.84 -9.54,-19.58 -9.01,-30.46c0,-9.52 4.75,-17.46 15.64,-17.46c8.39,0.15 14.92,7.31 14.3,15.67c-0.27,4.45 3.42,8.14 7.87,7.88c3.92,-0.43 6.76,-3.95 6.37,-7.88c0,-17.51 -11.11,-30.21 -28.53,-30.21c-13.72,-0.67 -25.88,8.8 -28.58,22.27c-28.32,-50.58 -44.2,-74.4 -75.75,-74.4l-23.78,-36.58c36.52,-12.69 61.87,-41.27 61.87,-85.73c0.5,-31.3 -15.86,-60.44 -42.84,-76.3c-7.93,-4.75 -17.41,-9.5 -17.41,-20.63c-0.75,-6.41 4.7,-11.84 11.1,-11.07c7.94,0 9.5,4.71 14.25,4.71c2.76,0.4 5.15,-1.94 4.79,-4.71c0,-7.94 -11.1,-14.31 -22.22,-14.31c-9.07,-0.25 -17.32,5.18 -20.68,13.61c-1.09,2.73 -1.62,5.64 -1.54,8.59c-0.06,4.96 1.04,9.86 3.18,14.31l-4.75,0c-20.86,0 -34.88,12.71 -34.88,28.59c0,12.74 4.74,17.5 9.5,17.5c7.91,0 4.74,-6.38 4.74,-14.33c0,-12.69 11.1,-17.44 23.84,-17.44c31.72,0 58.68,31.77 58.68,71.48c0,47.65 -36.52,79.41 -92.02,79.41c-65.05,0 -114.24,-47.65 -114.24,-114.37c0,-65.16 38.09,-109.73 80.9,-149.27l36.52,-34.95c46.02,-42.9 65.02,-87.36 65.02,-142.9c0,-60.4 -36.52,-127.11 -112.58,-160.45c15.64,-4.75 25.35,-20.9 25.35,-39.7c0,-12.7 -4.75,-20.59 -4.75,-30.14c0,-19.09 11.1,-30.21 26.97,-30.21c12.71,-0.41 23.36,9.55 23.78,22.26c0.46,9.83 -7.64,17.93 -17.47,17.49c-4.75,0 -7.93,0 -7.93,4.75c0,4.75 4.79,6.32 11.1,6.32c14.19,0.48 26.47,-9.77 28.53,-23.82c3.42,1.99 7.25,3.09 11.16,3.19c10.7,0.44 19.48,-8.38 19,-19.07c0,-3.18 -1.58,-7.94 -6.31,-7.94c-3.19,0 -4.75,3.19 -4.75,6.33c0.29,4.51 -3.43,8.26 -7.94,8c-6.51,-0.64 -12.07,-4.97 -14.28,-11.13c-7.09,-12.68 -20.38,-20.64 -34.9,-20.9c-19.72,-0.34 -36.66,13.91 -39.71,33.4c-10.88,-11.06 -23.15,-20.65 -36.52,-28.53c12.68,-8.02 23.8,-14.33 36.52,-23.9c20.07,-15.16 38.67,-32.18 55.56,-50.82l87.22,-95.3c76.15,-84.17 125.19,-104.8 172.93,-104.8c41.25,0 61.86,20.63 61.86,44.46c0,17.5 -7.45,30.46 -19.35,36.83c-7.23,-7.53 -12.08,-17.03 -13.92,-27.31c-1.62,-7.9 -3.18,-7.9 -4.79,-7.9c-3.19,0 -3.19,3.11 -3.19,6.32c-0.3,11.61 2.66,23.07 8.57,33.08c-1.72,0 -3.51,0.3 -5.23,0.3c-15.65,0 -25.35,-7.99 -25.35,-17.49c-0.15,-2.97 1.02,-5.86 3.19,-7.9c3.12,-3.19 1.56,-4.81 0,-4.81c-6.36,0 -12.73,7.94 -12.73,17.45c0,11.13 9.54,27.02 36.52,27.02c5.07,0 10.12,-0.75 14.97,-2.25c18.42,13.65 43.6,13.65 62.02,0c4.87,1.5 9.95,2.25 15.02,2.25c26.92,0 36.52,-15.67 36.52,-27.02c0,-9.5 -6.36,-17.45 -12.68,-17.45c-1.56,0 -3.18,1.63 0,4.81c2.11,2.07 3.25,4.94 3.13,7.9c0,9.5 -9.5,17.5 -25.35,17.5c-1.83,0 -3.66,0 -5.21,-0.31c5.9,-10.01 8.86,-21.47 8.55,-33.08c0,-3.19 0,-6.32 -3.18,-6.32c-1.58,0 -3.19,0 -4.75,7.88c-1.89,10.27 -6.73,19.76 -13.92,27.32c-11.89,-6.38 -19.42,-19.32 -19.42,-36.83c0,-23.83 20.62,-44.47 61.87,-44.47c47.57,0 96.79,20.63 172.93,104.81l87.22,95.3c16.51,19.02 35.15,36.08 55.54,50.84c12.68,9.56 23.8,15.67 36.52,23.87c-13.36,7.86 -25.64,17.47 -36.52,28.53c-3.1,-19.45 -20,-33.67 -39.69,-33.38c-14.52,0.25 -27.82,8.21 -34.9,20.9c-2.21,6.15 -7.75,10.47 -14.25,11.13c-4.51,0.27 -8.23,-3.49 -7.93,-8c0,-3.12 -1.62,-6.33 -4.75,-6.33c-4.79,0 -6.35,4.75 -6.35,7.94c-0.43,10.69 8.34,19.48 19.03,19.07c3.92,-0.1 7.75,-1.2 11.13,-3.19c2.09,14.02 14.35,24.26 28.52,23.82c6.38,0 11.12,-1.56 11.12,-6.31c0,-4.75 -3.19,-4.75 -7.93,-4.75c-10.14,1.27 -18.75,-7.38 -17.43,-17.51c0.46,-12.68 11.05,-22.62 23.73,-22.26c15.91,0 27.02,11.13 27.02,30.2c0,9.56 -4.79,17.46 -4.79,30.15c0,19.07 9.54,34.95 25.4,39.7c-76.15,33.34 -112.62,100.05 -112.62,160.46c0,55.53 19.05,99.99 65,142.89l36.52,34.95c42.82,39.71 80.9,84.12 80.9,149.27c0,66.73 -49.19,114.37 -114.24,114.37l-0.56,0zm-349.98,295.35c-9.08,-17.69 -20.28,-34.21 -33.34,-49.21c14.47,-5.59 26.35,-16.36 33.34,-30.21c6.97,13.84 18.83,24.61 33.28,30.21c-13.04,15 -24.21,31.53 -33.28,49.21zm16.02,-1191.24c-10.2,4.6 -21.88,4.6 -32.08,0c7.2,-5.57 12.76,-13 16.06,-21.48c3.29,8.48 8.83,15.91 16.02,21.48zm474.17,713.26c-8.49,-0.44 -16.53,3.86 -20.87,11.18c-12.68,-28.57 -25.35,-55.59 -80.9,-106.43c7.2,2.2 14.7,3.27 22.22,3.19c17.47,0 36.52,-4.81 47.57,-15.68c2.97,10.63 12.81,17.86 23.84,17.52c17.42,0 23.78,-11.13 23.78,-23.84c0,-4.79 -1.61,-9.56 -6.36,-9.56c-9.5,0 -1.56,19.08 -17.42,19.08c-6.78,-0.06 -11.98,-6.03 -11.12,-12.75c0,-7.88 4.75,-17.44 4.75,-28.57c1.01,-22.12 -13.51,-41.95 -34.9,-47.65c-9.93,-1.93 -17.19,-10.52 -17.43,-20.63c0,-12.71 9.5,-14.28 15.65,-14.28c6.16,0 11.12,1.58 11.12,-3.18c0,-4.75 -4.75,-7.94 -14.25,-7.94c-11.1,0 -26.96,7.94 -26.96,25.38c-0.22,7.2 2.67,14.15 7.93,19.08c-15.51,2.68 -26.87,16.09 -26.97,31.83c0,11.07 3.11,22.15 11.11,22.15c9.5,0 1.56,-7.94 1.56,-20.63c0,-14.26 12.68,-20.59 25.4,-20.59c17.43,0 33.28,15.67 33.28,36.57c0,23.83 -19.03,39.71 -49.19,39.71c-24.29,1.13 -47.75,-8.96 -63.64,-27.37c-33.32,-36.57 -52.16,-68.28 -52.16,-125.4c0,-73.15 52.16,-136.62 128.47,-157.27c16.99,-4.88 28.66,-20.47 28.55,-38.15c0,-15.66 -9.5,-28.51 -25.35,-28.51c-6.37,0 -11.12,1.51 -11.12,6.32c0,4.81 4.75,4.75 7.93,4.75c8.7,0.98 15.03,8.74 14.25,17.46c-0.01,10.71 -6.71,20.28 -16.77,23.96c-3.26,1.19 -6.73,1.69 -10.2,1.48c-17.43,0 -28.53,-12.69 -28.53,-30.19c0,-33.34 39.69,-55.59 69.8,-69.81c-26.97,-12.75 -36.52,-17.51 -57.12,-33.4c-4.26,-4.06 -6.56,-9.77 -6.31,-15.66c0,-7.94 4.75,-14.33 11.11,-14.33c4.49,-0.25 8.19,3.47 7.93,7.96c0,4.75 -3.18,4.75 -3.18,7.94c-0.41,2.77 1.97,5.16 4.75,4.75c3.18,0 11.1,-3.13 11.1,-15.68c0.19,-11.22 -9.42,-20.13 -20.6,-19.07c-14.67,0 -26.3,12.37 -25.4,27.02c-12.42,-10.27 -24.08,-21.41 -34.9,-33.34l-50.77,-55.59c-14.3,-15.68 -6.35,-46.02 14.25,-46.02c8.36,-0.62 15.51,5.93 15.64,14.31c0,14.25 -14.3,7.88 -14.3,15.68c-0.06,3.48 2.95,6.23 6.41,5.84c9.49,0.14 17.98,-5.83 21.08,-14.8c1.01,-2.9 1.4,-5.97 1.14,-9.03c-0.91,-15.75 -14.38,-27.8 -30.13,-26.96c-20.89,0 -34.85,15.68 -34.85,38.15l-15.91,-17.52c-69.8,-76.24 -126.87,-109.72 -182.58,-109.72c-17.96,-0.3 -35.61,4.68 -50.77,14.32c-7.53,-9.03 -14.41,-18.58 -20.59,-28.58c-6.27,10.01 -13.25,19.56 -20.87,28.58c-15.15,-9.64 -32.81,-14.62 -50.77,-14.32c-55.5,0 -112.62,33.4 -182.58,109.72l-15.63,17.52c0,-22.27 -14.3,-38.15 -34.9,-38.15c-15.78,-0.9 -29.29,11.18 -30.15,26.96c-1,12.92 9.26,23.92 22.22,23.82c3.63,0.38 6.7,-2.69 6.31,-6.32c0,-7.94 -14.25,-1.58 -14.25,-15.68c0.1,-6.13 4.01,-11.55 9.8,-13.57c1.88,-0.64 3.88,-0.9 5.86,-0.74c20.6,0 28.53,30.14 14.28,46.02l-50.79,55.62c-10.82,11.93 -22.48,23.07 -34.9,33.32c0.62,-10.68 -5.48,-20.63 -15.29,-24.91c-3.18,-1.37 -6.6,-2.08 -10.06,-2.09c-11.29,-1.28 -21.12,7.7 -20.87,19.06c0,12.76 7.93,15.67 11.11,15.67c2.78,0.43 5.18,-1.97 4.75,-4.75c0,-3.19 -3.13,-3.19 -3.13,-7.94c-0.27,-4.49 3.44,-8.21 7.93,-7.94c6.36,0 11.11,6.39 11.11,14.31c0.23,5.89 -2.08,11.61 -6.36,15.67c-19.04,19.08 -30.16,20.9 -57.13,33.4c30.16,14.21 69.8,36.56 69.8,69.8c0,17.5 -11.06,30.2 -28.53,30.2c-14.65,0.89 -27.01,-10.77 -26.97,-25.45c-0.72,-8.72 5.61,-16.43 14.3,-17.44c3.13,0 7.93,0 7.93,-4.75c0,-4.76 -4.79,-6.34 -11.1,-6.34c-15.65,0 -25.42,12.71 -25.42,28.53c-0.06,17.67 11.61,33.24 28.59,38.15c76.12,22.27 128.48,84.17 128.48,157.26c0,57.16 -20.6,87.31 -52.16,125.4c-15.75,18.27 -38.98,28.37 -63.09,27.43c-30.14,0 -49.17,-15.67 -49.17,-39.7c0,-20.63 15.64,-36.58 33.32,-36.58c12.68,0 25.35,6.33 25.35,20.59c0,12.69 -7.93,20.63 1.63,20.63c7.93,0 11.1,-11.08 11.1,-22.15c-0.15,-15.72 -11.48,-29.1 -26.97,-31.83c5.24,-4.94 8.12,-11.87 7.93,-19.08c0,-17.44 -15.65,-25.38 -26.97,-25.38c-9.54,0 -14.3,3.18 -14.3,7.94c0,4.75 4.75,3.18 11.12,3.18c6.36,0 15.64,1.58 15.64,14.26c-0.28,10.1 -7.51,18.66 -17.41,20.63c-21.44,5.64 -36.02,25.51 -34.96,47.65c0,11.13 4.79,20.92 4.79,28.59c0.83,6.71 -4.34,12.65 -11.1,12.75c-15.65,0 -7.93,-19.07 -17.47,-19.07c-4.75,0 -6.33,4.74 -6.33,9.56c0,12.71 6.33,23.82 23.8,23.82c11.01,0.36 20.84,-6.88 23.78,-17.5c11.12,11.07 30.15,15.67 47.57,15.67c7.52,0.07 15.02,-1.01 22.22,-3.19c-55.5,50.84 -68.22,77.86 -80.9,106.43c-4.34,-7.31 -12.38,-11.61 -20.87,-11.18c-15.64,0 -23.78,9.56 -23.78,23.87c0,3.14 0,12.71 7.93,12.71c6.31,0 3.18,-6.39 3.18,-11.13c0.09,-6.73 6,-11.9 12.68,-11.08c12.68,0 15.65,11.08 12.68,28.57c-1.3,8.4 -1.82,16.9 -1.56,25.38c0,74.62 55.5,128.65 128.47,128.65c10.63,-0.3 21.23,-1.35 31.72,-3.19l22.22,33.4c-15.66,4.46 -26.6,18.6 -26.97,34.89c-0.25,14.87 8.67,28.36 22.44,33.96c4.45,1.81 9.25,2.71 14.07,2.61c12.72,0 22.22,-6.38 22.22,-12.75c0.35,-3.61 -2.69,-6.65 -6.31,-6.31c-4.81,0 -4.81,4.75 -15.66,4.75c-9.07,0.22 -17.32,-5.23 -20.68,-13.66c-1.09,-2.74 -1.62,-5.66 -1.54,-8.61c0,-12.63 11.16,-22.2 26.97,-22.2c30.15,0 44.44,34.95 65.05,69.85l20.87,34.95c33.34,57.15 87.22,90.5 131.67,90.5c6.39,0.26 12.79,-0.27 19.05,-1.58c19.03,19.08 38.07,53.97 46.02,69.86c7.91,-15.67 26.91,-50.78 46,-69.86c6.26,1.3 12.65,1.83 19.03,1.58c44.38,0 98.34,-33.34 131.66,-90.5l20.61,-34.95c20.6,-34.89 34.9,-69.86 65.06,-69.86c15.65,0 26.96,9.58 26.96,22.21c0.3,12.4 -9.82,22.54 -22.22,22.26c-11.11,0 -11.11,-4.75 -15.65,-4.75c-3.64,-0.38 -6.72,2.66 -6.37,6.31c0,6.38 9.54,12.77 22.22,12.77c20.34,0.34 36.9,-16.26 36.52,-36.59c-0.53,-16.14 -11.4,-30.1 -26.91,-34.59l22.18,-33.38c10.48,1.84 21.08,2.9 31.7,3.19c73.03,0 128.55,-54.03 128.55,-128.64c0.26,-8.49 -0.27,-16.99 -1.57,-25.38c-3.19,-17.51 0,-28.59 12.68,-28.59c6.68,-0.84 12.61,4.34 12.68,11.08c0,4.75 -3.19,11.13 3.18,11.13c7.93,0 7.93,-9.56 7.93,-12.69c0,-14.33 -7.93,-23.88 -23.78,-23.88l0.41,0.1l0,-0.01zm-41.68,273.13c-69.8,71.47 -172.93,122.27 -271.26,169.96c-65.05,31.77 -128.47,63.49 -177.68,101.62c-49.17,-38.15 -112.66,-69.85 -177.67,-101.62c-98.37,-47.69 -201.46,-98.49 -271.24,-169.96c-88.69,-90.49 -131.73,-182.88 -131.73,-287.36c0,-88.81 34.96,-163.58 114.24,-263.63c6.31,-8.02 12.68,-15.94 12.68,-22.26c0,-6.33 -6.37,-19.08 -9.5,-25.38l-55.54,-120.76c-12.68,-26.95 -25.35,-52.25 -25.35,-79.37c0,-22.26 14.3,-38.15 33.28,-54.03l79.34,-71.4c2.84,-3 3.47,-7.47 1.58,-11.14l-25.35,-52.25c-3.19,-6.39 -3.19,-11.19 1.56,-14.33c77.72,-52.25 142.79,-68.28 236.36,-93.73c88.68,-23.82 168.18,-44.47 217.38,-76.23c49.19,31.77 128.47,52.25 217.31,76.23c93.57,25.45 157.06,44.46 236.36,93.73c4.75,3.13 4.75,7.94 1.56,14.33l-25.35,52.25c-1.85,3.69 -1.19,8.14 1.63,11.14l79.01,71.35c19.05,15.67 33.29,31.77 33.29,54.03c0,27.02 -12.68,52.25 -25.35,79.35l-55.4,120.76c-3.18,6.31 -9.54,19.06 -9.54,25.38c0,6.33 6.37,14.26 12.68,22.26c85.71,95.3 114.24,174.67 114.24,263.63c0,104.5 -42.82,196.93 -131.67,287.38l0.17,0.05zm74.38,-546.35c-14.25,-17.51 -22.16,-25.46 -22.16,-31.77c0,-6.33 4.75,-15.67 9.5,-27.02l47.56,-104.81c14.3,-31.77 26.97,-58.78 26.97,-92.07c0,-23.86 -9.5,-47.7 -33.28,-68.34l-68.24,-58.78c-5.63,-4.69 -6.98,-12.8 -3.18,-19.06l25.42,-57.17c2.05,-3.95 0.65,-8.82 -3.19,-11.07c-77.72,-52.25 -166.55,-84.23 -250.66,-108.07c-84.09,-22.2 -196.71,-53.97 -252.19,-96.87c-55.56,42.9 -168.18,73.15 -252.27,96.87c-84.09,23.72 -172.88,55.64 -250.4,108.05c-3.89,2.22 -5.29,7.14 -3.18,11.08l25.4,57.21c3.85,6.25 2.52,14.38 -3.12,19.08l-68.25,58.78c-23.79,20.9 -33.34,44.46 -33.34,68.34c0,33.28 12.68,60.28 26.97,92.04l47.57,104.82c4.79,11.13 9.54,20.63 9.54,27.02c0,6.38 -7.93,14.25 -22.22,31.77c-71.34,88.82 -99.93,161.97 -99.93,258.88c0,134.96 66.62,238.15 142.77,316.05c77.72,79.37 185.61,131.77 284,179.42c65.05,31.77 133.22,63.53 196.71,114.37c63.43,-50.84 131.66,-82.61 196.71,-114.37c98.32,-47.65 207.81,-100.05 283.93,-179.42c76.15,-77.9 142.77,-181.09 142.77,-316.04c0,-96.93 -28.53,-169.96 -99.95,-258.89" fill="#00003c" id="svg_62" stroke-width="24.03"/>
   <path d="m1318.26,1816.61a106.36,106.36 0 0 1 -36.65,45.36a106.09,106.09 0 0 1 -55.01,19.16c-74.01,6.12 -75.11,-81.87 -75.11,-81.87l0,-214.68l2.18,0a188.67,188.67 0 0 1 71,6.12c66.66,18.91 114.4,79.14 112,148.48a205.69,205.69 0 0 1 -18.41,77.43zm-166.93,-527.07c0,0 15.65,-41.47 74.44,-37.04c58.78,4.45 90.67,52.71 92.33,100.05c1.66,47.35 14.25,152.21 -106.46,194.27l-60.15,0l-0.15,-257.28l-0.02,0zm218.31,389.88a190.52,190.52 0 0 0 -30.04,-63.68c-31.3,-42.21 -67.34,-56.02 -68.91,-56.54a217.02,217.02 0 0 0 24.51,-16.18a160.34,160.34 0 0 0 54.52,-75.51a226.89,226.89 0 0 0 5.64,-132.98c-26.09,-97.91 -95.84,-112.55 -95.84,-112.55c0,0 -81.12,-32.19 -136.94,38.61c-0.62,-0.98 -30.93,-47.69 -84.56,-23.19c-46.42,25.59 -19.71,66.08 -8.28,73.13c0,0 15.17,10.09 23.88,0c6.37,-7.51 0,-15.28 -3.59,-20.53c-6.68,-10.45 4.37,-22.1 19.92,-21.83c13.51,0 40.48,10.45 40.48,47.02l0,496.35c0,4.13 -4.23,30.62 -26.5,30.09c-22.27,-0.52 -30.36,-23.82 -17.64,-36.56a12.81,12.81 0 0 0 -3.97,-5.24c-2.3,-1.19 -36.51,-2.14 -32.51,34.19c4.02,36.31 47.49,53.85 89.36,31.02a115.26,115.26 0 0 0 102.14,58.26c73.34,0 119.34,-61.56 119.34,-61.56c0,0 58.86,-71.51 28.86,-181.66" fill="#00003c" id="svg_61" stroke-width="24.03"/>
   <path d="m1061.88,1771.06a287.67,287.67 0 0 0 186.22,57.1a241.46,241.46 0 0 0 126.77,-42.11c108.39,-75.75 59.92,-174.03 56.75,-182.88c0,0 -29.94,-68.28 -103.61,-93.67c0,0 -55.33,-18.59 -143.18,-25.03c-87.85,-6.42 -122.27,-44.04 -108.86,-90.18c13.41,-46.14 81.79,-66.95 124.09,-69.6a277.09,277.09 0 0 1 170.11,46.46c8.76,7.01 16.9,14.75 24.32,23.19c0,0 12,15.68 19.61,7.63c6.47,-7.05 -4.79,-16.92 -4.79,-16.92a91.88,91.88 0 0 1 -20.87,-52.25a266.87,266.87 0 0 1 -0.73,-39.4a95.59,95.59 0 0 1 2.93,-15.67c1.24,-4.45 2.29,-10.82 -4.13,-11.9c-5.21,-0.89 -7.77,5.21 -8.3,6.16a58.73,58.73 0 0 1 -63.26,27.37c-71,-15.41 -114.78,-14.68 -114.78,-14.68c0,0 -82.83,-5.75 -138.28,53.87a112.69,112.69 0 0 0 -29.63,97.55c13.21,66.65 82.05,91.17 152.95,90.43a344.53,344.53 0 0 1 83.47,9.31c15.3,3.52 30.31,8.27 44.86,14.2a133.54,133.54 0 0 1 78.25,84.91c10.12,35.37 6.41,82.86 -57.95,121.28c-118.84,71.04 -261.87,5.21 -321.82,-134.81a9.75,9.75 0 0 0 -13.04,-4.34c-7.57,3.13 -3.38,13.89 -3.38,13.89c0,0 22.26,40.19 17.99,71.85a87.16,87.16 0 0 1 -31.77,54.39c-6.16,5.64 -13.71,12.38 -7.82,18.24c5.89,5.85 12.1,2.61 20.85,-5.23l0.38,0a56.81,56.81 0 0 1 66.87,0.83" fill="#00003c" id="svg_60" stroke-width="24.03"/>
   <path d="m1200.05,1292.62l0,584.76a138.42,138.42 0 0 1 -13.45,61.23c-10.06,20.42 -26.76,40.86 -53.42,40.86c0,0 -31.29,2.67 -41.42,-17.08c-12.05,-23.2 8.19,-32.24 8.19,-32.24c0,0 14.09,-6.49 7.35,-17.4c-6.73,-10.93 -21.7,-5.23 -21.7,-5.23a62.61,62.61 0 0 0 -34.69,34.48c-11.47,26.87 7.43,71.69 58.69,76.59a114.2,114.2 0 0 0 104.8,-47.91c0,0 37.45,44.41 91.85,51.63c0,0 6.54,0.78 8.4,-1.99c1.89,-2.76 2.3,-7.32 -6.41,-13.37c-8.71,-6.05 -59.11,-35.11 -58.9,-85.84l0,-647.88a106.1,106.1 0 0 1 48.32,-90.02l1.29,-0.78a287.28,287.28 0 0 1 63.96,-25.5c0,0 12.47,-2.2 13.92,-8.36c1.45,-6.16 -2.14,-10.03 -10.43,-9.14a185.7,185.7 0 0 0 -46.96,9.93c-22.37,7.94 -49.4,23.93 -92.78,23.98c-33.49,0 -78.26,-11.8 -97.19,-17.24a116.44,116.44 0 0 1 -13.88,-5.23c-4.38,-1.93 -10.43,-3.98 -14.3,-1.41a9.14,9.14 0 0 0 -2.42,11.63a9.06,9.06 0 0 0 4.15,3.78c12.99,8.21 16.57,7.43 28.79,13.75a126.32,126.32 0 0 1 37.7,29.42a127.92,127.92 0 0 1 30.47,84.68" fill="#00003c" id="svg_59" stroke-width="24.03"/>
  </g>
 </g>
</svg>