<?xml version="1.0"?>
<svg width="700" height="700" xmlns="http://www.w3.org/2000/svg" xmlns:svg="http://www.w3.org/2000/svg" version="1.1">
 <metadata id="metadata12">image/svg+xml</metadata>

 <g class="layer">
  <title>Layer 1</title>
  <path d="m316.91,96.69c-14.61,0.35 -25.32,0.86 -44.96,2.07c-9.09,0.54 -19,1.34 -25.99,2.04c-1.75,0.19 -5.42,0.54 -8.12,0.8c-11.39,1.12 -28.29,3.25 -35.39,4.46c-1.51,0.26 -3.71,0.61 -4.95,0.8c-1.21,0.16 -3.38,0.54 -4.78,0.8c-1.4,0.25 -3.76,0.7 -5.26,0.95c-5.26,0.89 -14.22,2.71 -19.29,3.93c-1.41,0.35 -3.92,0.95 -5.58,1.34c-1.66,0.38 -3.16,0.73 -3.35,0.76c-9.34,2.23 -18.62,6.73 -25.76,12.56c-6.95,5.65 -13.17,14.76 -16.29,23.82c-0.51,1.4 -1.02,2.84 -1.18,3.19c-0.54,1.21 -2.9,11.41 -4.59,19.77c-0.26,1.4 -0.7,3.47 -0.96,4.62c-0.26,1.14 -0.6,3.15 -0.83,4.46c-0.19,1.31 -0.44,2.9 -0.61,3.51c-0.47,1.82 -2.42,14.25 -3.66,23.27c-1.21,8.74 -2.01,15.09 -2.71,21.52c-0.35,3.16 -0.7,6.25 -0.77,6.86c-0.09,0.6 -0.38,3.7 -0.67,6.86c-0.25,3.15 -0.63,7.01 -0.83,8.61c-0.67,5.86 -2.33,31.4 -3.15,49.41c-0.64,13.36 -1.05,41.96 -0.83,57.55c0.22,19.45 0.7,36.83 1.15,42.89c0.16,2.45 0.48,7.62 0.67,11.48c0.19,3.85 0.44,8.8 0.6,10.99c0.74,11.04 1.31,18.27 1.6,20.57c0.16,1.4 0.54,5.13 0.79,8.26c0.26,3.12 0.64,6.85 0.8,8.29c0.19,1.43 0.54,4.52 0.8,6.89c0.79,7.55 1.4,12.49 1.91,15.78c0.26,1.75 0.7,4.75 0.96,6.69c0.92,7.01 2,13.84 3.18,20.09c0.26,1.4 0.67,3.76 0.96,5.26c0.55,3.19 1.79,9.53 2.68,13.55c3.06,14.06 4.4,18.27 8,25.19c0.99,1.91 2.27,4.14 2.84,4.94c0.54,0.8 1.34,1.94 1.75,2.55c1.82,2.71 7.02,8 9.89,10.05c0.48,0.34 1.4,1.01 2.01,1.49c0.64,0.51 1.24,0.89 1.4,0.89c0.13,0 0.45,0.23 0.7,0.49c1.24,1.21 10.01,5.38 13.77,6.5c0.71,0.22 1.57,0.51 1.92,0.67c0.83,0.38 5.51,1.56 11.16,2.84c2.45,0.57 4.97,1.17 5.58,1.34c1.46,0.38 10.71,2.22 17.69,3.5c4.02,0.73 11.83,1.98 16.74,2.68c1.85,0.25 4.21,0.6 5.26,0.8c3.86,0.67 19.8,2.52 29.81,3.47c3.61,0.35 8.04,0.77 9.89,0.96c2.99,0.32 6.05,0.57 20.72,1.62c2.2,0.16 7.21,0.45 11.16,0.64c3.95,0.19 9.47,0.48 12.28,0.64c22.7,1.31 87.61,1.31 109.99,0c2.81,-0.19 8.33,-0.45 12.28,-0.64c6.79,-0.31 9.28,-0.48 19.93,-1.27c13.64,-1.05 33.7,-3 40.49,-3.96c1.94,-0.28 5.29,-0.73 7.49,-1.02c8.13,-1.05 19.29,-2.74 25.67,-3.92c6.98,-1.28 16.23,-3.12 17.7,-3.5c0.6,-0.17 3.12,-0.77 5.57,-1.34c5.52,-1.25 10.3,-2.46 11.16,-2.84a185.03,185.03 0 0 1 3.19,-1.12c2.61,-0.86 11.29,-4.97 12.02,-5.67c0.22,-0.23 0.86,-0.7 1.4,-1.03c2.49,-1.56 3.64,-2.45 5.9,-4.49c2.55,-2.33 6.09,-6.15 6.95,-7.46c0.29,-0.45 1.05,-1.53 1.69,-2.39c0.67,-0.89 1.21,-1.69 1.21,-1.82c0,-0.13 0.52,-1.02 1.12,-1.98c0.61,-0.95 1.34,-2.36 1.63,-3.12c0.32,-0.73 0.63,-1.53 0.76,-1.69c0.61,-0.8 2.84,-7.14 3.79,-10.75c1.51,-5.57 4.31,-18.74 5.33,-24.96c0.26,-1.59 0.54,-3.09 0.64,-3.35c0.29,-0.7 2.04,-11.64 3.63,-22.79c0.35,-2.46 0.7,-4.91 0.8,-5.42c0.26,-1.47 1.4,-11.26 1.91,-16.42c0.26,-2.55 0.61,-5.49 0.8,-6.54c0.19,-1.06 0.54,-4.5 0.8,-7.65c0.25,-3.16 0.6,-7.05 0.76,-8.61c0.19,-1.6 0.48,-5.23 0.67,-8.13c0.19,-2.91 0.48,-6.47 0.64,-7.97c0.19,-1.5 0.54,-7.02 0.8,-12.28c0.29,-5.26 0.6,-11.73 0.79,-14.34c1.44,-23.19 1.44,-84.02 0,-107.93c-0.16,-2.71 -0.44,-8.03 -0.63,-11.8c-0.2,-3.76 -0.48,-8.73 -0.64,-11c-0.19,-2.29 -0.61,-7.94 -0.96,-12.59c-0.35,-4.66 -0.7,-9.03 -0.8,-9.73c-0.09,-0.7 -0.38,-3.79 -0.63,-6.85c-0.26,-3.06 -0.55,-5.93 -0.64,-6.38c-0.1,-0.44 -0.45,-3.38 -0.8,-6.54c-0.82,-7.62 -1.85,-16.03 -2.07,-17.02c-0.1,-0.45 -0.45,-3 -0.8,-5.61c-1.56,-11.93 -4.46,-28.54 -6.95,-39.86c-0.35,-1.59 -0.92,-4.17 -1.27,-5.74c-0.9,-4.08 -1.95,-8.19 -2.3,-8.92c-0.16,-0.35 -0.44,-1.21 -0.67,-1.92c-0.7,-2.35 -4.24,-10.23 -5.13,-11.48c-0.13,-0.19 -1.15,-1.68 -2.24,-3.34c-2.26,-3.41 -8.06,-9.47 -11.54,-12.02c-6.88,-5.07 -14.53,-8.52 -24.42,-10.94a466.74,466.74 0 0 1 -5.1,-1.28c-1.18,-0.34 -3.54,-0.86 -8.61,-1.91a419.52,419.52 0 0 1 -4.3,-0.92c-6.16,-1.5 -26.18,-4.75 -39.22,-6.41c-2.62,-0.32 -5.2,-0.67 -5.74,-0.79c-0.96,-0.2 -5.58,-0.68 -14.98,-1.6c-2.62,-0.26 -6.22,-0.64 -7.97,-0.8c-1.76,-0.19 -4.92,-0.48 -7.02,-0.67c-2.1,-0.16 -5.55,-0.45 -7.65,-0.6c-7.14,-0.61 -26.97,-1.76 -37.94,-2.24c-21.21,-0.92 -60.36,-1.21 -84.65,-0.6zm-140.48,215.44c0.19,0.15 1.12,0.44 2.04,0.67c1.72,0.41 4.14,1.53 5.96,2.74c1.43,0.95 4.82,4.59 5.48,5.87c0.32,0.63 0.67,1.21 0.77,1.3c0.1,0.1 0.38,0.73 0.64,1.44c0.22,0.7 0.51,1.43 0.67,1.59c0.41,0.61 0.89,4.4 0.89,7.21c0,2.74 -0.42,5.96 -0.96,7.14c-1.72,3.95 -2.55,5.26 -4.72,7.56c-2.01,2.07 -2.83,2.7 -5.57,4.04c-2.24,1.12 -3.83,1.7 -5.11,1.82c-1.02,0.13 -1.91,0.35 -2.01,0.48c-0.22,0.38 -7.14,0.38 -7.14,0c0,-0.13 -0.8,-0.35 -1.82,-0.48c-0.98,-0.12 -2.23,-0.41 -2.77,-0.64a32.81,32.81 0 0 0 -2.1,-0.86c-0.61,-0.22 -1.18,-0.48 -1.28,-0.57c-0.09,-0.13 -0.57,-0.42 -1.12,-0.67c-1.84,-0.92 -5.67,-5.17 -6.79,-7.49c-0.6,-1.25 -1.17,-2.46 -1.33,-2.71c-1.09,-2.17 -1.28,-12.06 -0.26,-14.35c0.29,-0.61 0.7,-1.63 0.92,-2.23c0.23,-0.61 0.48,-1.18 0.58,-1.28c0.09,-0.09 0.48,-0.73 0.83,-1.43c0.6,-1.18 4.4,-5.27 4.94,-5.27c0.13,0 0.42,-0.22 0.64,-0.5c0.6,-0.67 3.7,-2.17 5.58,-2.65c0.89,-0.22 1.88,-0.54 2.23,-0.7c0.35,-0.16 1.21,-0.32 1.91,-0.42c1.88,-0.19 8.48,0.1 8.9,0.39zm347.4,22.22l0,16.1l-61.85,0l0,-21.55l3.44,-0.55c7.62,-1.17 12.37,-1.97 12.66,-2.16c0.19,-0.13 1.75,-0.38 3.5,-0.61c1.76,-0.22 3.35,-0.51 3.51,-0.64c0.19,-0.12 1.69,-0.41 3.35,-0.63c1.66,-0.2 3.82,-0.58 4.79,-0.83c0.95,-0.22 2.96,-0.58 4.46,-0.77c1.5,-0.19 2.99,-0.48 3.34,-0.61c0.36,-0.15 1.95,-0.44 3.51,-0.66c1.6,-0.19 3.38,-0.48 3.99,-0.67c0.6,-0.16 2.9,-0.61 5.1,-0.96c2.2,-0.35 5.07,-0.83 6.38,-1.05c1.3,-0.26 2.7,-0.45 3.12,-0.48l0.7,-0.03l0,16.1zm-264,14.22l0,19.1l31.89,0l0,28.38l-31.92,0l0.13,29.55c0.1,31.85 0.03,30.29 1.76,34.21c1.3,3.03 5,6.12 8.19,6.89c0.54,0.13 1.15,0.38 1.4,0.57c0.61,0.48 13.52,0.48 14.1,-0.03c0.25,-0.19 1.4,-0.45 2.61,-0.57l2.14,-0.23l0,27.97l-0.87,0.38c-0.79,0.35 -4.46,0.92 -9.5,1.53c-7.17,0.83 -20.25,0.92 -21.01,0.12c-0.19,-0.15 -0.7,-0.28 -1.18,-0.28c-1.24,0 -6.41,-0.96 -6.79,-1.25c-0.19,-0.12 -1.05,-0.44 -1.95,-0.63c-0.86,-0.22 -1.72,-0.51 -1.91,-0.64c-0.16,-0.16 -0.89,-0.45 -1.59,-0.67c-0.7,-0.22 -1.34,-0.51 -1.44,-0.61c-0.09,-0.09 -0.67,-0.44 -1.27,-0.79c-2.65,-1.41 -3.44,-1.91 -4.85,-3.1c-0.83,-0.67 -1.59,-1.24 -1.75,-1.24c-0.32,-0.03 -2.75,-2.68 -4.66,-5.1c-1.46,-1.88 -3.63,-5.48 -4.37,-7.33c-0.25,-0.61 -0.54,-1.18 -0.63,-1.28c-0.13,-0.09 -0.45,-1.08 -0.77,-2.23c-0.29,-1.15 -0.67,-2.36 -0.83,-2.71c-0.16,-0.35 -0.54,-1.79 -0.79,-3.19a152.73,152.73 0 0 0 -0.87,-3.98c-0.22,-0.96 -0.38,-12.19 -0.47,-33.42l-0.13,-31.94l-18.46,0l0,-28.38l18.49,0l0,-32.14l2.17,-0.23c1.18,-0.12 2.29,-0.34 2.45,-0.47c0.19,-0.13 1.76,-0.41 3.51,-0.64c1.75,-0.22 3.35,-0.54 3.51,-0.67c0.19,-0.13 2.2,-0.48 4.46,-0.76c2.3,-0.33 4.31,-0.67 4.46,-0.8c0.2,-0.13 1.25,-0.35 2.4,-0.45a52.63,52.63 0 0 0 4.46,-0.73c3.41,-0.7 9.37,-1.63 9.66,-1.47c0.13,0.06 0.22,8.74 0.22,19.26zm105.7,16.07c4.46,0.25 9.5,0.83 9.88,1.11c0.19,0.13 0.96,0.35 1.76,0.45c1.81,0.29 6.25,1.6 8.92,2.68c2.24,0.89 7.21,3.38 7.97,4.02c0.26,0.19 0.83,0.57 1.28,0.76c0.44,0.23 1.85,1.34 3.09,2.43c1.25,1.11 2.4,2.07 2.55,2.13c0.48,0.22 6.16,7.11 6.16,7.49c0,0.1 0.29,0.61 0.64,1.09c0.67,0.96 3.5,6.47 3.5,6.82c0,0.13 0.26,0.83 0.61,1.56c0.31,0.74 0.7,1.85 0.83,2.46c0.13,0.61 0.35,1.24 0.47,1.43c0.13,0.16 0.42,1.18 0.64,2.24c0.19,1.05 0.45,2.13 0.55,2.39c0.12,0.25 0.41,1.62 0.67,3.03c0.38,2.1 0.47,10.04 0.6,45.17l0.13,42.66l-34.79,0l-0.03,-3.76c-0.03,-2.04 -0.13,-5 -0.26,-6.57l-0.19,-2.86l-0.92,1.27c-1.46,1.95 -6.28,6.54 -8.19,7.81c-4.18,2.74 -5.3,3.41 -6.45,3.8c-0.7,0.19 -1.62,0.57 -2.07,0.82c-0.48,0.23 -1.65,0.61 -2.61,0.8c-0.96,0.22 -1.91,0.51 -2.08,0.64c-1.62,1.21 -21.71,1.18 -23.27,-0.03c-0.16,-0.13 -1.31,-0.41 -2.55,-0.64c-1.21,-0.22 -2.65,-0.57 -3.19,-0.83c-0.51,-0.22 -1.88,-0.8 -2.99,-1.24a44.9,44.9 0 0 1 -3.77,-1.85a52.78,52.78 0 0 0 -2.58,-1.5c-1.34,-0.74 -1.79,-1.15 -5.42,-4.78c-3.73,-3.73 -4.21,-4.24 -4.21,-4.59c0,-0.13 -0.41,-0.83 -0.89,-1.57c-0.51,-0.73 -1.24,-2.07 -1.63,-2.93c-0.38,-0.89 -0.89,-1.95 -1.12,-2.39c-0.25,-0.45 -0.6,-1.59 -0.82,-2.55c-0.23,-0.96 -0.51,-1.91 -0.64,-2.07c-0.35,-0.45 -0.96,-4.98 -0.96,-6.96c0,-0.92 -0.16,-1.84 -0.35,-2.03c-0.38,-0.39 -0.29,-1.66 0.7,-9.35c0.19,-1.5 0.48,-2.87 0.61,-3.03c0.13,-0.19 0.41,-1.02 0.6,-1.88c0.42,-1.66 1.28,-3.82 2.17,-5.45c0.29,-0.54 0.67,-1.27 0.87,-1.66c0.19,-0.41 0.44,-0.73 0.6,-0.73c0.13,0 0.22,-0.19 0.22,-0.41c0,-0.36 3.51,-4.92 4.12,-5.33c0.12,-0.1 0.35,-0.41 0.44,-0.73c0.13,-0.35 0.51,-0.67 0.86,-0.77c0.35,-0.09 0.64,-0.29 0.64,-0.41c0,-0.32 5.36,-4.53 7.17,-5.58c1.31,-0.8 4.25,-2.3 8.52,-4.34c0.61,-0.32 6.56,-2.23 9.18,-2.96c0.96,-0.29 2.84,-0.68 4.14,-0.86c1.31,-0.23 2.56,-0.48 2.72,-0.61c0.19,-0.13 2.1,-0.42 4.3,-0.61c2.2,-0.19 4.91,-0.5 6.06,-0.67c4.53,-0.67 20.43,-0.54 22.13,0.17c0.57,0.25 0.6,0.12 0.38,-2.59c-0.13,-1.56 -0.35,-2.9 -0.48,-3c-0.16,-0.09 -0.35,-0.7 -0.48,-1.34c-0.22,-1.18 -1.44,-3.76 -2.58,-5.51c-0.74,-1.12 -3.83,-4.31 -4.18,-4.31c-0.12,0 -0.67,-0.32 -1.21,-0.73c-1.4,-1.02 -3.67,-2.04 -5.04,-2.29c-0.67,-0.13 -1.21,-0.36 -1.21,-0.48c0,-1.41 -20.6,-1.63 -26.78,-0.26c-0.8,0.16 -2.65,0.51 -4.15,0.77c-1.5,0.25 -2.99,0.6 -3.34,0.76c-0.36,0.16 -1.5,0.45 -2.56,0.64c-1.05,0.19 -2.2,0.48 -2.55,0.64c-0.35,0.16 -1.62,0.51 -2.83,0.8c-1.21,0.28 -2.36,0.6 -2.55,0.76c-0.2,0.13 -1.05,0.45 -1.95,0.67c-0.86,0.22 -1.75,0.54 -1.91,0.67c-0.19,0.13 -1.05,0.41 -1.92,0.64c-0.89,0.19 -2.13,0.63 -2.77,0.95c-0.67,0.35 -1.27,0.61 -1.37,0.61c-0.1,0 -0.16,-6.67 -0.16,-14.79c0,-11.52 0.1,-14.86 0.42,-15.12c0.22,-0.19 1.11,-0.51 1.97,-0.73c0.9,-0.19 1.76,-0.48 1.91,-0.61c0.2,-0.13 1.25,-0.51 2.4,-0.8c1.14,-0.31 2.23,-0.66 2.39,-0.79c0.19,-0.16 1.18,-0.42 2.2,-0.64c1.05,-0.22 2.14,-0.51 2.39,-0.67c0.29,-0.12 1.59,-0.48 2.9,-0.76a62.4,62.4 0 0 0 3.03,-0.67c0.35,-0.1 2.13,-0.39 3.98,-0.64c1.86,-0.25 3.8,-0.61 4.31,-0.77c1.85,-0.57 18.55,-1.62 22.32,-1.4c1.05,0.06 3.35,0.19 5.1,0.29zm-175.84,66.48l0,63.44l-37.3,0l0,-126.89l37.3,0l0,63.45zm281.85,-23.92c0,37.75 0.16,45.06 0.93,46.08c0.15,0.15 0.35,0.79 0.48,1.4c0.44,2.39 2.51,5.87 4.87,8.22c1.25,1.28 2.65,2.4 3.09,2.52c0.48,0.1 0.84,0.29 0.84,0.42c0,0.12 1.11,0.57 2.48,1.02c2.04,0.64 3.13,0.76 6.31,0.76c2.24,0 4.18,-0.16 4.63,-0.35c0.41,-0.22 1.4,-0.54 2.2,-0.76c0.8,-0.22 2.23,-0.89 3.19,-1.54c1.78,-1.14 5.1,-4.2 5.1,-4.71c0,-0.16 0.44,-0.86 0.95,-1.53c0.54,-0.71 0.96,-1.4 0.96,-1.6c0,-0.19 0.29,-0.86 0.61,-1.5c0.35,-0.63 0.73,-1.72 0.86,-2.39c0.09,-0.7 0.31,-1.4 0.48,-1.56c0.79,-1.02 0.92,-7.46 0.92,-44.86l0,-39.15l37.3,0l0,126.89l-17.66,0c-13.8,0 -17.76,-0.09 -17.95,-0.41c-0.13,-0.19 -0.29,-3.22 -0.35,-6.69c-0.06,-3.45 -0.22,-6.28 -0.35,-6.28c-0.13,0 -0.51,0.38 -0.89,0.85c-1.79,2.43 -4.6,5.17 -8.99,8.8c-0.64,0.51 -1.95,1.22 -4.82,2.62c-1.31,0.63 -2.74,1.37 -3.19,1.59c-0.44,0.23 -1.65,0.58 -2.71,0.8c-1.05,0.22 -1.98,0.51 -2.07,0.64c-0.32,0.47 -5.96,0.95 -11.54,0.95c-5.48,0 -9.95,-0.38 -11.26,-0.92c-0.35,-0.16 -1.56,-0.54 -2.71,-0.83c-1.14,-0.29 -2.2,-0.67 -2.39,-0.8c-0.16,-0.13 -0.92,-0.44 -1.66,-0.67c-0.76,-0.19 -1.37,-0.47 -1.37,-0.6c0,-0.13 -0.57,-0.41 -1.27,-0.64c-0.7,-0.22 -1.28,-0.51 -1.28,-0.64c0,-0.12 -0.35,-0.38 -0.76,-0.57c-2.74,-1.24 -8.96,-7.08 -11.58,-10.84c-1.59,-2.3 -4.05,-6.89 -4.56,-8.58c-0.19,-0.67 -0.57,-1.65 -0.79,-2.17c-0.23,-0.54 -0.61,-1.68 -0.8,-2.55c-0.19,-0.89 -0.48,-1.81 -0.64,-2.13c-0.16,-0.29 -0.45,-1.79 -0.64,-3.35c-0.19,-1.53 -0.54,-3.09 -0.73,-3.45c-0.29,-0.47 -0.41,-11.86 -0.48,-45.84l-0.09,-45.18l37.33,0l0,39.53zm0,0" fill="#000000" fill-rule="nonzero" id="path2" stroke-width="1.06" transform="matrix(1 0 0 1 0 0)"/>
  <path d="m361.38,438.16c-1.56,0.16 -3.15,0.42 -3.5,0.58c-0.36,0.19 -1.5,0.47 -2.55,0.7c-1.02,0.19 -2.39,0.57 -3.03,0.86c-4.79,2.07 -7.11,3.44 -8.71,5.1c-1.53,1.6 -3.06,4.56 -3.31,6.41c-0.07,0.64 -0.29,1.47 -0.48,1.81c-0.35,0.74 -0.22,3 0.35,5.97c0.64,3.22 3.19,7.14 5.45,8.32c4.02,2.07 4.78,2.39 7.02,2.74c4.01,0.61 11.67,0.26 13.32,-0.63c0.29,-0.17 1.47,-0.71 2.62,-1.22c1.15,-0.54 2.64,-1.4 3.35,-1.94c0.7,-0.55 1.49,-1.18 1.78,-1.41c1.82,-1.36 5.17,-6.91 5.61,-9.21c0.1,-0.57 0.35,-1.24 0.55,-1.5c0.22,-0.29 0.38,-3.22 0.44,-8.48l0.13,-8.03l-1.72,-0.19c-2.33,-0.29 -13.81,-0.19 -17.32,0.12zm0,0" fill="#000000" fill-rule="nonzero" id="path4" stroke-width="1.06"/>
 </g>
</svg>