<?xml version="1.0"?>
<svg width="2500" height="2500" xmlns="http://www.w3.org/2000/svg" xmlns:svg="http://www.w3.org/2000/svg" version="1.1">
 <metadata id="metadata15">image/svg+xmlCombined Shape</metadata>

 <!-- Generator: Sketch 60.1 (88133) - https://sketch.com -->
 <title id="title2">Combined Shape</title>
 <desc id="desc4">Created with Sketch.</desc>
 <g class="layer">
  <title>Layer 1</title>
  <metadata fill="#000000" id="svg_17">image/svg+xmlCombined Shape</metadata>

  <!-- Generator: Sketch 60.1 (88133) - https://sketch.com -->
  <desc fill="#000000" id="svg_14">Created with Sketch.</desc>
  <g fill="#18ad47" fill-rule="evenodd" id="svg_11" transform="matrix(3.67892 0 0 3.67892 237.5 -47.5828)">
   <g fill="#18ad47" id="svg_12">
    <path d="m140.32,230.65c2.85,0 5.16,2.3 5.16,5.14l0,0l0,55.28c0,1.84 -0.99,3.53 -2.58,4.45l0,0l-68.65,39.49c-0.8,0.46 -1.69,0.69 -2.58,0.69c-0.89,0 -1.78,-0.23 -2.58,-0.69l0,0l-68.62,-39.4c-1.6,-0.91 -2.59,-2.61 -2.59,-4.45l0,0l0,-55.25c0,-2.84 2.31,-5.15 5.16,-5.15c2.85,0 5.16,2.31 5.16,5.15l0,0l0,52.28l63.47,36.43l63.48,-36.52l0,-52.31c0,-2.84 2.31,-5.14 5.17,-5.14zm120.64,-16.02c9.8,0 17.78,7.94 17.78,17.71l0,0l0,11.21c0,8.31 -5.77,17.45 -13.53,19.36l0,0l12.78,24.43c1.61,2.93 0.52,6.61 -2.41,8.22c-3.51,1.93 -7.04,-0.01 -8.25,-2.41l0,0l-15.69,-29.71l-12.39,0l0,26.5c0,3.34 -2.73,6.06 -6.08,6.06c-3.35,0 -6.08,-2.72 -6.08,-6.06l0,0l0,-57.6c0,-9.77 7.98,-17.71 17.78,-17.71l0,0l16.09,0zm118.26,0.06c3.35,0 6.08,2.71 6.08,6.05l0,0l0,69.26c0,3.34 -2.73,6.06 -6.08,6.06c-3.36,0 -6.09,-2.72 -6.09,-6.06l0,0l0,-69.26c0,-3.34 2.73,-6.05 6.09,-6.05zm22.36,0c2.17,0 4.19,1.16 5.28,3.03l0,0l28.13,53.12l0,-50.1c0,-3.34 2.73,-6.05 6.08,-6.05c3.35,0 6.08,2.71 6.08,6.05l0,0l0,69.26c0,2.74 -1.85,5.18 -4.51,5.86c-1.46,0.37 -4.91,0.51 -6.84,-2.84l0,0l-28.13,-50.68l0,47.66c0,3.34 -2.73,6.06 -6.09,6.06c-3.35,0 -6.08,-2.72 -6.08,-6.06l0,0l0,-69.26c0,-6.03 5.56,-6.05 6.08,-6.05zm123.34,0c3.35,0 6.08,2.71 6.08,6.05l0,0l0,63.2l24.8,0c3.35,0 6.08,2.72 6.08,6.06c0,3.34 -2.73,6.06 -6.08,6.06l0,0l-30.88,0c-3.35,0 -6.08,-2.72 -6.08,-6.06l0,0l0,-69.26c0,-3.34 2.73,-6.05 6.08,-6.05zm-325.81,-0.06c9.81,0 17.78,7.94 17.78,17.71l0,0l0,45.95c0,9.76 -7.97,17.71 -17.78,17.71l0,0l-16.08,0c-9.81,0 -17.78,-7.95 -17.78,-17.71l0,0l0,-45.95c0,-9.77 7.97,-17.71 17.78,-17.71l0,0l16.08,0zm95.91,0c3.35,0 6.08,2.71 6.08,6.05l0,0l0,69.26c0,3.34 -2.73,6.06 -6.08,6.06c-3.36,0 -6.08,-2.72 -6.08,-6.06l0,0l0,-69.26c0,-3.34 2.72,-6.05 6.08,-6.05zm50.14,0c9.8,0 17.78,7.94 17.78,17.71c0,3.34 -2.73,6.06 -6.08,6.06c-3.35,0 -6.08,-2.72 -6.08,-6.06c0,-3.09 -2.52,-5.6 -5.62,-5.6l0,0l-16.09,0c-3.09,0 -5.62,2.51 -5.62,5.6l0,0l0,45.95c0,3.08 2.53,5.6 5.62,5.6l0,0l16.09,0c3.1,0 5.62,-2.52 5.62,-5.6l0,0l0,-14.92l-13.66,0c-3.36,0 -6.08,-2.71 -6.08,-6.05c0,-3.34 2.72,-6.06 6.08,-6.06l0,0l19.74,0c1.62,0 3.15,0.63 4.3,1.77c1.15,1.15 1.78,2.67 1.78,4.28l0,0l0,20.98c0,9.76 -7.98,17.71 -17.78,17.71l0,0l-16.09,0c-9.8,0 -17.78,-7.95 -17.78,-17.71l0,0l0,-45.95c0,-9.77 7.98,-17.71 17.78,-17.71l0,0l16.09,0zm145.88,0.06c9.77,-0.01 17.71,7.63 17.72,19.16l0,0l0,55.91c0,3.59 -2.73,6.2 -6.08,6.2c-3.35,0 -6.08,-2.72 -6.08,-6.06l0,0l0,-26.47l-27.12,0l0,26.47c0,3.34 -2.72,6.06 -6.08,6.06c-3.35,0 -6.08,-2.72 -6.08,-6.06l0,0l0,-57.56c0,-9.74 7.95,-17.65 17.72,-17.65l0,0l16,0zm-291.93,12.05l-16.08,0c-3.1,0 -5.62,2.51 -5.62,5.6l0,0l0,45.95c0,3.08 2.52,5.6 5.62,5.6l0,0l16.08,0c3.1,0 5.62,-2.52 5.62,-5.6l0,0l0,-45.95c0,-3.09 -2.52,-5.6 -5.62,-5.6zm-130.01,-58.71c1.6,-0.92 3.57,-0.92 5.17,0l0,0l68.63,39.47c1.59,0.92 2.58,2.62 2.58,4.45c0,1.84 -0.99,3.54 -2.58,4.46l0,0l-68.65,39.48c-0.8,0.46 -1.69,0.69 -2.58,0.69c-0.89,0 -1.78,-0.23 -2.58,-0.68l0,0l-68.62,-39.4c-1.6,-0.92 -2.59,-2.61 -2.59,-4.45c0,-1.84 0.98,-3.54 2.58,-4.46l0,0l68.64,-39.56zm191.86,58.71l-16.09,0c-3.1,0 -5.62,2.51 -5.62,5.6l0,0l0,18.99l21.71,0c3.1,0 5.62,-4.69 5.62,-7.78l0,0l0,-11.21c0,-3.09 -2.52,-5.6 -5.62,-5.6zm230.08,0.06l-16,0c-3.06,0 -5.56,2.48 -5.56,5.54l0,0l0,18.98l27.12,0l0,-18.98c0,-3.06 -2.49,-5.54 -5.56,-5.54zm-419.35,-48.38l-58.32,33.62l58.3,33.46l58.32,-33.55l-58.3,-33.53zm164.97,1.21c4.64,0 8.41,3.63 8.41,9.1l0,0l0,12.29c0,1.7 -1.3,2.94 -2.89,2.94c-1.59,0 -2.88,-1.29 -2.88,-2.88l0,0l0,-13.07c0,-1.45 -1.18,-2.63 -2.64,-2.63l0,0l-7.59,0c-1.46,0 -2.64,1.18 -2.64,2.63l0,0l0,13.07c0,1.59 -1.3,2.88 -2.89,2.88c-1.59,0 -2.88,-1.29 -2.88,-2.88l0,0l0,-13.07c0,-4.62 3.77,-8.38 8.41,-8.38l0,0l7.59,0zm-27.83,0.01c4.63,0 8.41,3.75 8.41,8.37l0,0l0,7.57c0,4.62 -3.64,8.37 -9.13,8.37l0,0l-7.14,0c-0.32,0 -0.62,-0.05 -0.91,-0.14c-3.84,-0.71 -6.77,-4.02 -6.87,-8.03c0.11,-4.53 3.71,-8.17 9.12,-8.17l0,0l9.11,0c-0.19,-1.26 -1.28,-2.23 -2.59,-2.23l0,0l-11.9,0c-1.59,0 -2.88,-1.29 -2.88,-2.87c0,-1.59 1.29,-2.87 2.88,-2.87l0,0l11.9,0zm59.92,0c1.71,0 2.95,1.29 2.95,2.87c0,1.59 -1.29,2.88 -2.88,2.88l0,0l-11.89,0c-1.46,0 -2.64,1.17 -2.64,2.62l0,0l0,7.57c0,1.45 1.18,2.63 2.64,2.63l0,0l11.89,0c1.59,0 2.88,1.29 2.88,2.87c0,1.59 -1.29,2.88 -2.88,2.88l0,0l-11.89,0c-4.64,0 -8.41,-3.76 -8.41,-8.38l0,0l0,-7.57c-0.01,-4.62 3.64,-8.37 9.13,-8.37l0,0l11.1,0zm22.53,0c4.63,0 8.4,3.75 8.4,8.37l0,0l0,7.57c0.01,4.62 -3.63,8.37 -9.12,8.38l0,0l-6.9,0c-4.63,0 -8.41,-3.76 -8.41,-8.38l0,0l0,-7.57c0,-4.62 3.64,-8.37 9.13,-8.37l0,0l6.9,0zm-112.7,-12.09c4.38,0 7.94,3.55 7.94,7.91l0,0l0,3.23c0,4.8 -2.91,5.11 -2.91,5.11c0,0 6.92,0.72 6.92,7.21l0,0l0,5.01c0,4.37 -3.57,7.92 -7.95,7.92l0,0l-9.39,0c-6.51,0 -7.94,-1.8 -7.94,-7.92l0,0l0,-21.25c0.05,-5.63 0.8,-7.22 6.72,-7.22l0,0l6.61,0zm4,19.85l-3.63,0l-0.74,0.04l-7.53,0l0,8.58c0,1.98 0.47,2.5 2.51,2.5l0,0l9.39,0c1.39,0 2.52,-1.12 2.52,-2.5l0,0l0,-5.14c0,-1.38 -1.13,-3.48 -2.52,-3.48zm108.7,-2.01l-7.62,0c-1.45,0 -2.64,1.17 -2.64,2.62l0,0l0,7.57c0,1.45 1.19,2.63 2.64,2.63l0,0l1.11,0l0.01,0l6.5,0c1.45,0 2.63,-1.18 2.63,-2.63l0,0l0,-7.57c0,-1.45 -1.18,-2.62 -2.63,-2.62zm-79.81,7.97l-9.88,0c-1.39,0 -2.51,1.07 -2.62,2.42c0.11,1.35 1.23,2.43 2.62,2.43l0,0l7.24,0c1.45,0 2.64,-1.18 2.64,-2.63l0,0l0,-2.22zm-32.89,-20.4l-6.61,0c-2.01,0 -1.29,0.49 -1.29,2.5l0,0l0,6.66l5.16,0l1.07,0.04l1.67,0c1.38,0 2.51,-2.09 2.51,-3.47l0,0l0,-3.23c0,-1.38 -1.13,-2.5 -2.51,-2.5z" fill="#000000" id="svg_13" stroke-width="4.21"/>
   </g>
  </g>
  <g id="selectorGroup1">
   <path fill="none" id="selectedBox1" stroke="#22C" stroke-dasharray="5,5"/>
  </g>
 </g>
</svg>