<?xml version="1.0" encoding="UTF-8"?>
<!DOCTYPE svg PUBLIC "-//W3C//DTD SVG 1.1//EN" "http://www.w3.org/Graphics/SVG/1.1/DTD/svg11.dtd">
<!-- Creator: CorelDRAW 2021 (64 Bit) -->
<svg xmlns="http://www.w3.org/2000/svg" xml:space="preserve" width="162.622mm" height="41.2416mm" version="1.1" style="shape-rendering:geometricPrecision; text-rendering:geometricPrecision; image-rendering:optimizeQuality; fill-rule:evenodd; clip-rule:evenodd"
viewBox="0 0 5379.34 1364.22"
 xmlns:xlink="http://www.w3.org/1999/xlink"
 xmlns:xodm="http://www.corel.com/coreldraw/odm/2003">
 <defs>
  <style type="text/css">
   <![CDATA[
    .fil0 {fill:#201E1E;fill-rule:nonzero}
   ]]>
  </style>
 </defs>
 <g id="Camada_x0020_1">
  <metadata id="CorelCorpID_0Corel-Layer"/>
  <g id="_2056023290400">
   <path id="path2" class="fil0" d="M-0 1298.88l573.42 0 3.05 -15.88 -565.48 -117.25 10.99 -62.9 565.48 122.13 4.89 -21.99 -534.33 -232.05 23.2 -64.12 535.56 225.33 10.99 -15.87 -474.48 -352.36 48.85 -76.94 471.44 352.35 14.04 -18.93 -371.28 -471.43 90.99 -73.89 368.22 449.45 15.88 -14.05 -214.34 -545.32 130.07 -54.96 202.13 534.32 15.88 -4.89 0 -592.33 207.62 0 0 1096.74 -1132.78 0 -0 -45.17zm3300 -194.2l224.11 0 0 241.22 -186.25 0c-196.02,0 -316.33,-67.79 -316.33,-316.33l0 -538.61 -133.13 0c-23.21,0 -35.42,-28.09 -19.54,-45.19l385.33 -437.23c16.49,-17.71 46.41,-6.11 46.41,18.32l0 222.89 222.27 0 0 241.21 -222.27 0 0 613.71 -0.61 0.01zm-798.74 -872.63c-133.74,0 -233.88,76.94 -282.74,197.85l-9.16 0 0 -180.76 -265.64 0 0 1096.73 279.08 0 0 -850.04 186.25 -0c81.22,0 111.14,17.1 111.14,103.81l0 746.23 279.08 0 0 -800.58c-0.59,-220.44 -106.26,-313.27 -298,-313.27l-0 0.02zm-1039.96 1113.84l279.07 0 0 -1096.74 -279.07 0 0 1096.74zm3651.16 -902.56l-11.57 0 0 -194.19 -277.27 0 0 1096.73 295.58 0 0 -834.77 260.15 0 0 -279.07 -36.05 0c-136.8,0 -197.25,60.45 -230.84,211.29l0 0.01zm-418.27 326.09l0 83.05 -836.62 0c15.25,163.05 117.23,271.14 274.78,271.14 141.07,0 243.05,-75.11 263.8,-167.93l297.4 -0c-62.28,231.44 -274.78,408.54 -565.48,408.54 -338.92,0 -569.12,-241.21 -569.12,-557.54 0,-316.32 222.29,-574.63 576.46,-574.63 334.64,0 558.78,230.23 558.78,537.38l-0.01 -0.01zm-828.09 -119.07l539.85 0c-42.15,-109.92 -131.29,-188.7 -269.31,-188.7 -120.91,0.61 -227.16,64.12 -270.54,188.7l0 0z"/>
  </g>
 </g>
</svg>
