<?xml version="1.0" encoding="UTF-8"?>
<!DOCTYPE svg PUBLIC "-//W3C//DTD SVG 1.1//EN" "http://www.w3.org/Graphics/SVG/1.1/DTD/svg11.dtd">
<!-- Creator: CorelDRAW 2021 (64 Bit) -->
<svg xmlns="http://www.w3.org/2000/svg" xml:space="preserve" width="88.4002mm" height="94.0571mm" version="1.1" style="shape-rendering:geometricPrecision; text-rendering:geometricPrecision; image-rendering:optimizeQuality; fill-rule:evenodd; clip-rule:evenodd"
viewBox="0 0 2621.99 2789.78"
 xmlns:xlink="http://www.w3.org/1999/xlink"
 xmlns:xodm="http://www.corel.com/coreldraw/odm/2003">
 <defs>
  <style type="text/css">
   <![CDATA[
    .fil0 {fill:#000;fill-rule:nonzero}
   ]]>
  </style>
 </defs>
 <g id="Camada_x0020_1">
  <metadata id="CorelCorpID_0Corel-Layer"/>
  <g id="layer1">
   <g id="g381">
    <polygon id="path8553" class="fil0" points="1015.36,2789.78 1212.84,2789.78 1212.84,1777.93 1015.36,1777.93 "/>
    <polygon id="path8555" class="fil0" points="1392.46,2789.78 1715.95,2789.78 1715.95,1400.82 1392.46,1400.82 "/>
    <g>
     <path id="path8557" class="fil0" d="M838.24 433.5c0,0 326.12,-318.77 875.63,-213.89 0,0 241.86,37.61 427.29,202.25 0,0 27.57,25.85 48.66,4.67 0,0 26.93,-21.1 -2.95,-52.68 0,0 -159.4,-221.04 -473.93,-318.75 0,0 -432.17,-154.73 -876.15,54.34 0,0 -273.29,113.26 -424.86,421.8 0,0 -216.07,69.79 -378.04,160.63 0,0 -47.88,18.96 -29.81,56.17 0,0 15.5,26.73 57.4,6.89 0,0 150.44,-51.92 295.42,-84.33 0,0 -116.64,302.44 5.15,677.83 54.17,167.12 153.06,337.22 304.21,473.96 0,0 24.61,25.87 51.42,8.22 0,0 23.35,-16.96 6.91,-44.65 0,0 -120.55,-181.36 -167.32,-439.3 -38.99,-210.31 -20.63,-500.71 125.42,-730.95 0,0 556.14,-77.59 1030.13,100.89 0,0 805.07,262.71 602.43,750.02 0,0 -58.83,169.37 -281.11,322.38 0,0 -37.23,21.68 -17.06,52.75 0,0 16.81,24.21 54.93,8.7 0,0 340.33,-110.68 487.26,-384.09 0,0 297.92,-455.98 -404.75,-828.01 0,0 -193.17,-103.23 -441.57,-158.46 0,0 -447.54,-110.71 -874.66,-46.34l-0.04 -0.07zm0 0l0 0 0 0z"/>
    </g>
   </g>
  </g>
 </g>
</svg>
