<?xml version="1.0"?>
<svg width="12000" height="12000" xmlns="http://www.w3.org/2000/svg" xmlns:svg="http://www.w3.org/2000/svg" version="1.1">
 <metadata id="metadata15">image/svg+xmlCombined Shape</metadata>

 <!-- Generator: Sketch 60.1 (88133) - https://sketch.com -->
 <title id="title2">Combined Shape</title>
 <desc id="desc4">Created with Sketch.</desc>
 <g class="layer">
  <title>Layer 1</title>
  <g id="svg_8">

   <path clip-rule="evenodd" d="m1532.42,1389.52c0,42.52 -29.93,60.54 -77.19,60.54l-98.75,0l0,-121.08l105.7,0c45.21,0 70.24,21.26 70.24,58.92l0,1.62zm27.14,229.02l0,-1.62c0,-38.46 -24.34,-62.14 -79.3,-62.14l-123.77,0l0,125.92l127.25,0c47.3,0 75.83,-19.64 75.83,-62.16zm784.52,-67.04l-129.36,0l64.66,-185.72l64.7,185.72zm1088.68,1421.5c0,153.64 -108.02,218.61 -278.78,218.61l-348.4,0l0,-437.27l373.51,0c163.27,0 253.68,76.8 253.68,212.74l0,5.92zm-189.51,596.36c198.35,0 286.22,85.68 286.22,224.47l0,5.86c0,150.71 -99.33,221.62 -264.42,224.14l-459.49,0l0,-454.47l437.68,0zm1692.13,-1884.56c86.25,0 146.05,-80.12 146.05,-178.3l0,-1.66c0,-98.16 -61.18,-179.9 -147.42,-179.9c-86.25,0 -146.05,80.14 -146.05,178.28l0,1.62c0,98.16 61.16,179.96 147.42,179.96zm697.58,-1038.72l0,3377.75l-10.07,0l-201.22,-239.09c-136.4,145.8 -257.82,239.09 -456.19,239.09c-297.47,0 -503.24,-291.59 -503.24,-641.44l0,-5.82c0,-349.94 210.71,-635.6 503.24,-635.6c154.5,0 279.6,69.44 399.59,185.47l244.97,-330.93c-153.49,-161.16 -342.72,-268.61 -642.08,-268.61c-533.03,0 -904.9,475.28 -904.9,1055.49l0,5.8c0,240.4 63.88,460.03 174.38,635.64l-349.14,0c13.39,-51.25 20.42,-107.43 20.42,-168.73l0,-5.86c0,-274.08 -123.89,-416.87 -324.72,-507.26c123.93,-81.64 228.08,-215.69 228.08,-446l0,-5.86c0,-320.66 -218.17,-527.68 -572.64,-527.68l-805.78,0l0,1661.38l-84.65,0l-600.69,-1660.23l-372.55,0l-600.69,1660.23l-9.88,0l0,-3377.75l4867.76,0zm-956.96,860.38c0,162.84 107.78,294.46 258.01,294.46c150.21,0 259.42,-133.34 259.42,-296.02l0,-1.72c0,-162.74 -107.78,-294.42 -258.05,-294.42c-150.21,0 -259.38,133.34 -259.38,296.14l0,1.56zm-847.77,0c0,164.4 106.44,294.46 249.64,294.46c93.9,0 149.54,-39.22 199.64,-102.18l-68.17,-81c-38.24,40.9 -72.33,67.06 -127.97,67.06c-83.46,0 -141.17,-81.74 -141.17,-179.9l0,-1.72c0,-98.06 59.11,-178.3 141.17,-178.3c48.67,0 86.93,24.6 124.5,64.64l68.13,-92.46c-45.21,-52.3 -100.15,-88.3 -191.95,-88.3c-149.52,0 -253.81,133.34 -253.81,296.14l0,1.56zm-876.29,284.68l105.68,0l0,-363.96l235.79,363.96l91.05,0l0,-572.58l-105.7,0l0,352.52l-228.08,-352.52l-98.75,0l0,572.58zm-929.16,0l109.17,0l44.53,-128.4l205.85,0l44.47,128.4l111.96,0l-208.6,-576.68l-98.75,0l-208.64,576.68zm-770.6,0l231.56,0c109.91,0 182.24,-52.38 182.24,-157.1l0,-1.56c0,-76.9 -34.77,-115.36 -91.09,-140.72c34.73,-22.92 63.96,-58.92 63.96,-123.44l0,-1.72c0,-89.92 -61.22,-148.04 -160.65,-148.04l-226.01,0l0,572.58zm307.38,1096.57l393.85,1136.18l-787.7,0l393.85,-1136.18zm4073.4,2624.67l-589.74,0l0,-1030.74l192.81,0l0,824.58l396.93,0l0,206.16zm-1071.81,0l192.81,0l0,-1030.74l-192.81,0l0,1030.74zm-591.63,14.7c-132.7,0 -266.68,-54.49 -371.83,-164.91l113.91,-160.52c78.91,76.65 161.55,125.18 261.66,125.18c78.89,0 126.47,-36.82 126.47,-97.2l0,-2.87c0,-57.47 -30.05,-86.91 -176.54,-131.09c-176.52,-52.96 -290.46,-110.46 -290.46,-315.06l0,-2.99c0,-187.01 127.72,-310.72 306.74,-310.72c127.72,0 236.63,47.11 325.5,131.08l-100.15,170.76c-77.62,-63.33 -153.99,-101.54 -227.89,-101.54c-73.83,0 -112.65,39.79 -112.65,89.77l0,2.95c0,67.74 37.56,89.82 189.02,135.55c177.81,54.45 277.98,129.53 277.98,309.22l0,2.93c0,204.6 -132.7,319.47 -321.77,319.47zm-673.38,-14.7l-80.14,-231.21l-370.58,0l-80.14,231.21l-196.52,0l375.52,-1038.1l177.77,0l375.62,1038.1l-201.53,0zm-265.43,-765.66l-116.43,334.21l232.87,0l-116.43,-334.21zm-776.53,765.66l-187.79,-329.8l-151.46,0l0,329.8l-192.84,0l0,-1030.74l400.62,0c206.59,0 330.58,128.09 330.58,340.16l0,2.93c0,166.37 -76.41,270.94 -187.79,319.51l214.07,368.14l-225.39,0zm3.77,-678.8c0,-97.2 -57.55,-147.24 -151.46,-147.24l-191.56,0l0,295.98l195.29,0c93.9,0 147.73,-58.92 147.73,-145.78l0,-2.97zm-1075.72,678.8l-416.89,0l0,-1030.74l406.85,0c179.06,0 289.23,104.58 289.23,266.54l0,2.93c0,116.36 -52.59,181.13 -115.18,222.38c101.4,45.59 164.03,114.81 164.03,253.21l0,2.97c0,188.49 -130.26,282.71 -328.04,282.71zm87.64,-725.91c0,-67.76 -45.08,-106.05 -126.45,-106.05l-190.31,0l0,217.93l177.77,0c85.14,0 138.98,-32.37 138.98,-108.96l0,-2.93zm48.81,412.26c0,-69.17 -43.79,-111.88 -142.71,-111.88l-222.85,0l0,226.76l229.12,0c85.14,0 136.44,-35.34 136.44,-111.88l0,-2.99z" fill="#a6874b" fill-rule="evenodd" id="svg_6" stroke="#ffffff" stroke-width="40.61"/>
  </g>
 </g>
</svg>