<?xml version="1.0"?>
<svg width="2500" height="2500" xmlns="http://www.w3.org/2000/svg" xmlns:svg="http://www.w3.org/2000/svg" version="1.1">
 <metadata id="metadata15">image/svg+xmlCombined Shape</metadata>

 <!-- Generator: Sketch 60.1 (88133) - https://sketch.com -->
 <title id="title2">Combined Shape</title>
 <desc id="desc4">Created with Sketch.</desc>
 <g class="layer">
  <title>Layer 1</title>
  <metadata fill="#000000" id="svg_17">image/svg+xmlCombined Shape</metadata>

  <!-- Generator: Sketch 60.1 (88133) - https://sketch.com -->
  <desc fill="#000000" id="svg_14">Created with Sketch.</desc>
  <g id="selectorGroup1">
   <path fill="none" id="selectedBox1" stroke="#22C" stroke-dasharray="5,5"/>
  </g>
  <g id="svg_58">

   <path d="m944.99,579.86c3,21.07 8.85,36.86 17.57,47.39c15.99,18.95 43.37,28.41 82.12,28.41c23.24,0 42.11,-2.51 56.59,-7.52c27.48,-9.62 41.22,-27.48 41.22,-53.6c0,-15.26 -6.76,-27.06 -20.28,-35.39c-13.52,-8.33 -34.88,-15.54 -64.06,-21.62l-49.95,-11c-49.08,-10.86 -82.81,-22.66 -101.19,-35.39c-31.08,-21.3 -46.63,-54.63 -46.63,-99.97c0,-41.36 15.22,-75.72 45.61,-103.11c30.41,-27.38 75.1,-41.07 134.05,-41.04c49.22,0 91.21,12.9 125.96,38.69c34.75,25.8 52.97,63.24 54.65,112.35l-92.56,0c-1.72,-27.76 -14.12,-47.51 -37.23,-59.22c-15.37,-7.73 -34.52,-11.6 -57.42,-11.6c-25.46,0 -45.8,5.03 -60.99,15.06c-15.19,10.04 -22.78,24.04 -22.78,41.99c0,16.56 7.52,28.87 22.54,36.97c9.61,5.42 30.04,11.79 61.3,19.12l80.97,19.1c35.47,8.36 62.07,19.54 79.8,33.54c27.5,21.74 41.24,53.17 41.24,94.31c0,42.2 -16.29,77.26 -48.88,105.16c-32.59,27.89 -78.62,41.83 -138.1,41.82c-60.74,0 -108.51,-13.74 -143.31,-41.22c-34.8,-27.48 -52.22,-65.23 -52.26,-113.25l92.02,0l0,0.01zm529.66,-23.54c-5.47,3.44 -11.27,6.32 -17.31,8.62a145.38,145.38 0 0 1 -23.95,6.11l-20.28,3.75c-19.02,3.36 -32.71,7.4 -41,12.23c-14.06,8.16 -21.08,20.79 -21.08,37.89c0,15.26 4.29,26.29 12.87,33.08a48.89,48.89 0 0 0 31.3,10.18a93.03,93.03 0 0 0 53.89,-16.93c16.41,-11.29 24.93,-31.86 25.57,-61.71l-0.02,-33.23l0,0.01zm-54.56,-41.68c16.61,-2.08 28.48,-4.7 35.63,-7.82c12.82,-5.44 19.24,-13.9 19.25,-25.4c0,-14 -4.93,-23.66 -14.76,-28.98c-9.84,-5.33 -24.26,-8 -43.23,-8.02c-21.36,0 -36.48,5.22 -45.38,15.68c-6.35,7.72 -10.58,18.16 -12.69,31.31l-86.15,0c1.89,-29.86 10.27,-54.4 25.15,-73.64c23.67,-30.1 64.34,-45.14 121.99,-45.14c37.56,0 70.88,7.42 99.97,22.25c29.09,14.85 43.62,42.86 43.6,84.03l0,156.66c0,10.88 0.19,24.04 0.61,39.5c0.63,11.7 2.41,19.62 5.32,23.79a31.81,31.81 0 0 0 13.16,10.37l0,13.15l-96.95,0a99.96,99.96 0 0 1 -5.63,-19.43a237.17,237.17 0 0 1 -2.5,-20.68a183.25,183.25 0 0 1 -42.82,34.15a129.44,129.44 0 0 1 -65.49,16.61c-31.08,0 -56.73,-8.83 -76.98,-26.49c-20.26,-17.67 -30.38,-42.68 -30.38,-75.03c0,-41.98 16.29,-72.39 48.87,-91.19c17.87,-10.24 44.16,-17.54 78.88,-21.95l30.53,-3.74zm349.68,-258.38c4.51,0.33 10.84,0.79 18.78,1.43l0,72.71c-5.01,-0.63 -13.39,-1.11 -25.2,-1.43c-11.82,-0.32 -19.92,2.26 -24.41,7.83a28.53,28.53 0 0 0 -6.76,18.35l0,28.8l58.59,0l0,63.01l-58.59,0l0,275.39l-88.56,0l0,-275.4l-50.08,0l0,-63.01l48.82,0l0,-21.91c0,-36.54 6.16,-61.71 18.48,-75.53c12.94,-20.47 44.13,-30.69 93.6,-30.69c5.61,0 10.72,0.14 15.32,0.45m233.54,116.58c1.15,0.11 3.69,0.26 7.67,0.48l0,91.42a242.31,242.31 0 0 0 -25.65,-1.56c-35.89,0 -60,11.7 -72.32,35.1c-6.88,13.16 -10.33,33.44 -10.33,60.81l0,163.24l-89.83,0l0,-341.5l85.15,0l0,59.55c13.78,-22.77 25.8,-38.34 36.06,-46.7c16.69,-14 38.39,-21 65.1,-21c1.67,0 3.07,0 4.21,0.16m229.2,183.46c-5.48,3.44 -11.28,6.33 -17.31,8.63a145.38,145.38 0 0 1 -23.96,6.11l-20.28,3.75c-19.02,3.36 -32.7,7.4 -41,12.23c-14.11,8.16 -21.15,20.81 -21.15,37.97c0,15.26 4.28,26.29 12.86,33.08a48.82,48.82 0 0 0 31.3,10.18c19.28,0.08 38.09,-5.83 53.86,-16.93c16.42,-11.29 24.95,-31.87 25.6,-61.72l0.07,-33.3zm-54.56,-41.67c16.61,-2.09 28.48,-4.7 35.63,-7.83c12.78,-5.48 19.17,-13.94 19.17,-25.39c0,-14 -4.92,-23.66 -14.76,-28.98c-9.84,-5.33 -24.26,-8.01 -43.24,-8.02c-21.35,0 -36.48,5.22 -45.37,15.68c-6.35,7.72 -10.59,18.16 -12.69,31.31l-86.09,0c1.89,-29.86 10.28,-54.4 25.15,-73.64c23.68,-30.1 64.34,-45.14 121.99,-45.14c37.56,0 70.88,7.42 99.97,22.25c29.09,14.85 43.65,42.84 43.68,83.97l0,156.68c0,10.88 0.21,24.04 0.63,39.5c0.63,11.7 2.41,19.62 5.32,23.79a31.88,31.88 0 0 0 13.14,10.37l0,13.16l-96.91,0a99.91,99.91 0 0 1 -5.63,-19.44a229.93,229.93 0 0 1 -2.5,-20.68a183.71,183.71 0 0 1 -42.82,34.16a129.42,129.42 0 0 1 -65.49,16.61c-31.07,0 -56.73,-8.84 -76.98,-26.49c-20.26,-17.67 -30.38,-42.68 -30.38,-75.03c0,-41.99 16.29,-72.39 48.88,-91.2c17.86,-10.23 44.15,-17.55 78.87,-21.94l30.42,-3.7l0,-0.01zm-1616.11,131.09c-23.98,0 -39.73,-13.72 -39.73,-34.3c0,-17.15 11.65,-30.87 25.35,-30.87c5.48,0 10.27,2.04 10.27,7.53c0,3.43 -1.37,6.19 2.05,6.19c2.05,0 4.12,-2.05 4.12,-7.57c0,-6.77 -6.18,-12.34 -15.08,-12.34l-2.07,0c0.93,-1.92 1.4,-4.04 1.37,-6.18a9.37,9.37 0 0 0 -9.58,-9.59c-4.8,0 -9.6,2.76 -9.6,6.19a1.81,1.81 0 0 0 1.22,1.96a1.8,1.8 0 0 0 0.84,0.07c2.04,0 2.74,-2.03 6.17,-2.03a4.3,4.3 0 0 1 4.78,4.78c0,4.81 -4.11,6.78 -7.52,8.92a37.5,37.5 0 0 0 -18.5,32.96c0,19.2 10.98,31.59 26.72,37.03l-10.26,15.8c-13.71,0 -20.58,10.31 -32.9,32.26a12.01,12.01 0 0 0 -12.33,-9.62c-7.55,0 -12.35,5.48 -12.35,13.05a3.12,3.12 0 0 0 2.75,3.4a3.22,3.22 0 0 0 3.43,-3.4a6.3,6.3 0 0 1 6.18,-6.78c4.79,0 6.76,3.44 6.76,7.53a20.64,20.64 0 0 1 -4.12,13.05c-14.38,23.31 -34.26,34.98 -51.38,34.98c-15.09,0 -24,-8.91 -24,-17.82c0,-8.24 4.8,-15.1 13.02,-15.1c5.48,0 8.91,3.44 8.91,8.22c0,4.12 -3.43,4.12 -3.43,6.19c0,1.37 1.37,2.05 2.75,2.05c4.12,0 6.76,-4.78 6.76,-9.59c0,-7.57 -6.18,-13.05 -15.08,-13.05a18.71,18.71 0 0 0 -17.12,11a18.8,18.8 0 0 0 -17.13,-11c-9.01,0 -15.09,5.49 -15.09,13.05c0,4.81 2.74,9.59 6.76,9.59c1.35,0 2.72,-0.68 2.72,-2.05c0,-2.05 -3.43,-2.05 -3.43,-6.19c0,-4.78 3.43,-8.22 9.02,-8.22c8.19,0 13,6.78 13,15.1c0,8.92 -8.9,17.82 -23.97,17.82c-17.12,0 -37,-11.67 -51.4,-34.98a20.77,20.77 0 0 1 -3.89,-13.15c0,-4.11 2.05,-7.54 6.76,-7.54a6.3,6.3 0 0 1 6.18,6.78a3.22,3.22 0 0 0 3.4,3.4a3.11,3.11 0 0 0 2.75,-3.4c0,-7.57 -4.79,-13.05 -12.33,-13.05a12,12 0 0 0 -12.34,9.61c-12.24,-21.84 -19.09,-32.13 -32.72,-32.13l-10.27,-15.8c15.78,-5.48 26.73,-17.82 26.73,-37.03a37.52,37.52 0 0 0 -18.51,-32.96c-3.42,-2.05 -7.52,-4.11 -7.52,-8.92a4.32,4.32 0 0 1 4.79,-4.78c3.43,0 4.11,2.03 6.16,2.03a1.82,1.82 0 0 0 2.07,-2.03c0,-3.44 -4.8,-6.19 -9.6,-6.19a9.34,9.34 0 0 0 -8.93,5.88c-0.48,1.18 -0.7,2.44 -0.67,3.72c-0.03,2.14 0.45,4.26 1.37,6.18l-2.05,0c-9.01,0 -15.07,5.49 -15.07,12.35c0,5.5 2.04,7.56 4.1,7.56c3.42,0 2.05,-2.76 2.05,-6.19c0,-5.49 4.79,-7.53 10.29,-7.53c13.7,0 25.35,13.72 25.35,30.87c0,20.58 -15.77,34.3 -39.74,34.3c-28.1,0 -49.35,-20.58 -49.35,-49.4c0,-28.15 16.45,-47.4 34.94,-64.48l15.78,-15.1c19.87,-18.53 28.08,-37.74 28.08,-61.73c0,-26.09 -15.77,-54.91 -48.63,-69.3c6.76,-2.05 10.95,-9.03 10.95,-17.15c0,-5.48 -2.05,-8.89 -2.05,-13.01c0,-8.25 4.79,-13.05 11.65,-13.05a9.95,9.95 0 0 1 10.27,9.62a7.22,7.22 0 0 1 -7.54,7.55c-2.05,0 -3.43,0 -3.43,2.05c0,2.05 2.07,2.73 4.79,2.73a12.04,12.04 0 0 0 12.33,-10.29c1.47,0.85 3.13,1.33 4.82,1.37a7.89,7.89 0 0 0 8.21,-8.24c0,-1.37 -0.68,-3.43 -2.73,-3.43c-1.37,0 -2.04,1.37 -2.04,2.73a3.25,3.25 0 0 1 -3.44,3.45a7.31,7.31 0 0 1 -6.17,-4.81a17.63,17.63 0 0 0 -15.08,-9.02a17.06,17.06 0 0 0 -17.15,14.42a76.93,76.93 0 0 0 -15.78,-12.33c5.48,-3.46 10.28,-6.19 15.78,-10.32a173.61,173.61 0 0 0 23.99,-21.96l37.68,-41.16c32.89,-36.35 54.07,-45.27 74.7,-45.27c17.82,0 26.71,8.92 26.71,19.21c0,7.56 -3.22,13.15 -8.36,15.9a22.89,22.89 0 0 1 -6.01,-11.8c-0.7,-3.41 -1.37,-3.41 -2.07,-3.41c-1.38,0 -1.38,1.35 -1.38,2.73a26.74,26.74 0 0 0 3.7,14.28c-0.74,0 -1.52,0.13 -2.26,0.13c-6.76,0 -10.95,-3.45 -10.95,-7.55a4.38,4.38 0 0 1 1.37,-3.42c1.35,-1.37 0.68,-2.07 0,-2.07c-2.75,0 -5.5,3.43 -5.5,7.53c0,4.81 4.12,11.67 15.77,11.67c2.19,0 4.37,-0.33 6.47,-0.98a22.5,22.5 0 0 0 26.79,0c2.11,0.65 4.29,0.98 6.48,0.98c11.63,0 15.78,-6.78 15.78,-11.67c0,-4.1 -2.75,-7.53 -5.48,-7.53c-0.67,0 -1.37,0.7 0,2.07a4.51,4.51 0 0 1 1.36,3.42c0,4.1 -4.11,7.56 -10.95,7.56c-0.79,0 -1.58,0 -2.26,-0.14a26.74,26.74 0 0 0 3.69,-14.28c0,-1.38 0,-2.73 -1.37,-2.73c-0.68,0 -1.38,0 -2.05,3.4a23.23,23.23 0 0 1 -6.02,11.81c-5.14,-2.76 -8.39,-8.34 -8.39,-15.9c0,-10.29 8.91,-19.22 26.72,-19.22c20.56,0 41.81,8.92 74.71,45.28l37.67,41.16a142.04,142.04 0 0 0 23.99,21.96c5.47,4.13 10.27,6.78 15.77,10.32c-5.77,3.39 -11.08,7.54 -15.77,12.32a17.11,17.11 0 0 0 -17.15,-14.41a17.6,17.6 0 0 0 -15.08,9.02a7.33,7.33 0 0 1 -6.16,4.81a3.24,3.24 0 0 1 -3.42,-3.45c0,-1.35 -0.7,-2.73 -2.05,-2.73c-2.07,0 -2.75,2.05 -2.75,3.43a7.92,7.92 0 0 0 8.22,8.24c1.7,-0.04 3.35,-0.52 4.81,-1.37a12.08,12.08 0 0 0 12.32,10.29c2.76,0 4.8,-0.68 4.8,-2.73c0,-2.04 -1.37,-2.04 -3.42,-2.04a6.75,6.75 0 0 1 -7.53,-7.57a9.98,9.98 0 0 1 10.26,-9.62c6.87,0 11.67,4.81 11.67,13.05c0,4.13 -2.07,7.54 -2.07,13.02c0,8.24 4.12,15.1 10.98,17.15c-32.9,14.4 -48.65,43.22 -48.65,69.31c0,23.98 8.23,43.19 28.08,61.72l15.77,15.1c18.5,17.15 34.94,36.34 34.94,64.48c0,28.82 -21.24,49.4 -49.34,49.4l-0.25,0zm-151.17,127.58a106.26,106.26 0 0 0 -14.4,-21.26a27.06,27.06 0 0 0 14.4,-13.05a27.06,27.06 0 0 0 14.38,13.05a106.48,106.48 0 0 0 -14.38,21.26zm6.92,-514.56a16.85,16.85 0 0 1 -13.85,0a21.67,21.67 0 0 0 6.93,-9.28a21.64,21.64 0 0 0 6.92,9.28zm204.82,308.1a9.88,9.88 0 0 0 -9.01,4.83c-5.47,-12.34 -10.95,-24.02 -34.94,-45.97c3.11,0.94 6.34,1.41 9.59,1.37c7.55,0 15.77,-2.08 20.56,-6.77a10.36,10.36 0 0 0 10.29,7.56c7.52,0 10.27,-4.8 10.27,-10.29c0,-2.07 -0.7,-4.13 -2.75,-4.13c-4.11,0 -0.67,8.24 -7.52,8.24a4.89,4.89 0 0 1 -4.8,-5.51c0,-3.4 2.05,-7.53 2.05,-12.34a20.34,20.34 0 0 0 -15.08,-20.58a9.3,9.3 0 0 1 -7.52,-8.91c0,-5.49 4.11,-6.17 6.76,-6.17c2.66,0 4.8,0.68 4.8,-1.37c0,-2.05 -2.05,-3.44 -6.16,-3.44c-4.79,0 -11.64,3.44 -11.64,10.97a10.83,10.83 0 0 0 3.42,8.24a14.04,14.04 0 0 0 -11.65,13.74c0,4.78 1.35,9.57 4.8,9.57c4.11,0 0.68,-3.43 0.68,-8.91c0,-6.17 5.47,-8.9 10.97,-8.9c7.52,0 14.37,6.78 14.37,15.8c0,10.29 -8.22,17.15 -21.24,17.15a34.19,34.19 0 0 1 -27.49,-11.82c-14.4,-15.8 -22.53,-29.5 -22.53,-54.17c0,-31.6 22.53,-59.01 55.49,-67.93a17.03,17.03 0 0 0 12.33,-16.48c0,-6.77 -4.11,-12.32 -10.95,-12.32c-2.76,0 -4.8,0.65 -4.8,2.73c0,2.07 2.04,2.04 3.42,2.04a6.96,6.96 0 0 1 6.16,7.54a11.03,11.03 0 0 1 -7.25,10.35a10.96,10.96 0 0 1 -4.41,0.64c-7.52,0 -12.32,-5.49 -12.32,-13.05c0,-14.4 17.15,-24.01 30.15,-30.15c-11.66,-5.51 -15.78,-7.57 -24.68,-14.43a8.83,8.83 0 0 1 -2.72,-6.76c0,-3.44 2.05,-6.19 4.79,-6.19a3.25,3.25 0 0 1 3.43,3.44c0,2.04 -1.37,2.04 -1.37,3.43a1.81,1.81 0 0 0 2.05,2.05c1.37,0 4.79,-1.36 4.79,-6.78a8.13,8.13 0 0 0 -8.9,-8.24a10.99,10.99 0 0 0 -10.97,11.67a145.5,145.5 0 0 1 -15.08,-14.41l-21.93,-24.01c-6.17,-6.78 -2.74,-19.88 6.16,-19.88a6.3,6.3 0 0 1 6.76,6.18c0,6.16 -6.18,3.41 -6.18,6.78a2.49,2.49 0 0 0 2.78,2.53a9.49,9.49 0 0 0 9.1,-6.4c0.44,-1.25 0.6,-2.58 0.49,-3.89a12.38,12.38 0 0 0 -13.01,-11.65c-9.02,0 -15.06,6.77 -15.06,16.48l-6.87,-7.56c-30.15,-32.93 -54.8,-47.4 -78.86,-47.4a39.63,39.63 0 0 0 -21.93,6.19a107.09,107.09 0 0 1 -8.89,-12.34a107.46,107.46 0 0 1 -9.02,12.34a39.63,39.63 0 0 0 -21.92,-6.19c-23.97,0 -48.65,14.43 -78.87,47.4l-6.75,7.56c0,-9.61 -6.18,-16.48 -15.08,-16.48a12.33,12.33 0 0 0 -13.02,11.65a9.55,9.55 0 0 0 9.6,10.29a2.48,2.48 0 0 0 2.72,-2.73c0,-3.44 -6.16,-0.69 -6.16,-6.78a6.32,6.32 0 0 1 4.24,-5.86a6.28,6.28 0 0 1 2.53,-0.33c8.9,0 12.33,13.02 6.17,19.88l-21.94,24.03a145.57,145.57 0 0 1 -15.08,14.4a11.03,11.03 0 0 0 -6.61,-10.76a10.99,10.99 0 0 0 -4.34,-0.91a8.11,8.11 0 0 0 -9.01,8.24c0,5.52 3.42,6.77 4.8,6.77a1.8,1.8 0 0 0 2.05,-2.05c0,-1.37 -1.36,-1.37 -1.36,-3.43a3.24,3.24 0 0 1 3.43,-3.43c2.74,0 4.79,2.76 4.79,6.18a8.85,8.85 0 0 1 -2.74,6.78c-8.23,8.24 -13.03,9.02 -24.68,14.42c13.02,6.14 30.14,15.79 30.14,30.15c0,7.56 -4.78,13.04 -12.32,13.04a10.99,10.99 0 0 1 -11.66,-10.99a7,7 0 0 1 6.18,-7.53c1.36,0 3.43,0 3.43,-2.05c0,-2.06 -2.07,-2.74 -4.79,-2.74c-6.77,0 -10.98,5.49 -10.98,12.33a17.1,17.1 0 0 0 12.34,16.48c32.88,9.62 55.5,36.35 55.5,67.93c0,24.69 -8.9,37.71 -22.53,54.16a34.23,34.23 0 0 1 -27.25,11.85c-13.01,0 -21.24,-6.77 -21.24,-17.15c0,-8.92 6.76,-15.8 14.4,-15.8c5.48,0 10.95,2.73 10.95,8.89c0,5.48 -3.42,8.91 0.7,8.91c3.43,0 4.8,-4.78 4.8,-9.56a14.1,14.1 0 0 0 -11.66,-13.75a10.9,10.9 0 0 0 3.43,-8.24c0,-7.53 -6.76,-10.96 -11.65,-10.96c-4.12,0 -6.18,1.37 -6.18,3.43c0,2.05 2.05,1.37 4.8,1.37c2.75,0 6.76,0.68 6.76,6.16a9.36,9.36 0 0 1 -7.52,8.92a20.28,20.28 0 0 0 -15.1,20.58c0,4.81 2.07,9.03 2.07,12.34a4.91,4.91 0 0 1 -4.79,5.52c-6.76,0 -3.42,-8.25 -7.54,-8.25c-2.05,0 -2.73,2.05 -2.73,4.13c0,5.49 2.73,10.29 10.27,10.29a10.31,10.31 0 0 0 10.27,-7.56c4.8,4.78 13.02,6.78 20.55,6.78a32.09,32.09 0 0 0 9.6,-1.38c-23.97,21.96 -29.47,33.63 -34.94,45.97a9.9,9.9 0 0 0 -9.02,-4.83c-6.76,0 -10.26,4.13 -10.26,10.31c0,1.36 0,5.49 3.42,5.49c2.72,0 1.37,-2.76 1.37,-4.81a4.88,4.88 0 0 1 5.47,-4.78c5.48,0 6.76,4.78 5.48,12.34a59.67,59.67 0 0 0 -0.68,10.97c0,32.23 23.97,55.57 55.5,55.57c4.59,-0.13 9.17,-0.58 13.7,-1.37l9.6,14.42a16.05,16.05 0 0 0 -11.66,15.07a15.55,15.55 0 0 0 9.7,14.67c1.92,0.78 3.99,1.17 6.08,1.13c5.49,0 9.59,-2.76 9.59,-5.51a2.5,2.5 0 0 0 -2.72,-2.72c-2.08,0 -2.08,2.05 -6.77,2.05a9.36,9.36 0 0 1 -8.93,-5.9a9.39,9.39 0 0 1 -0.67,-3.72c0,-5.45 4.83,-9.59 11.66,-9.59c13.02,0 19.2,15.09 28.1,30.17l9.01,15.1c14.4,24.69 37.67,39.09 56.87,39.09a33.73,33.73 0 0 0 8.23,-0.68c8.22,8.24 16.44,23.31 19.88,30.17c3.41,-6.77 11.62,-21.93 19.87,-30.17a33.73,33.73 0 0 0 8.22,0.68c19.17,0 42.48,-14.41 56.87,-39.09l8.9,-15.1c8.9,-15.07 15.08,-30.18 28.1,-30.18c6.76,0 11.65,4.14 11.65,9.59a9.39,9.39 0 0 1 -9.59,9.62c-4.8,0 -4.8,-2.05 -6.76,-2.05a2.5,2.5 0 0 0 -2.76,2.72c0,2.76 4.12,5.52 9.6,5.52a15.52,15.52 0 0 0 15.77,-15.81a16.11,16.11 0 0 0 -11.62,-14.94l9.58,-14.41c4.53,0.79 9.1,1.25 13.69,1.37c31.55,0 55.52,-23.34 55.52,-55.56a59.68,59.68 0 0 0 -0.68,-10.97c-1.37,-7.56 0,-12.34 5.48,-12.34a4.86,4.86 0 0 1 5.47,4.78c0,2.04 -1.37,4.8 1.37,4.8c3.43,0 3.43,-4.12 3.43,-5.48c0,-6.19 -3.43,-10.32 -10.27,-10.32l0.18,0.04zm-18,117.97c-30.15,30.87 -74.7,52.81 -117.17,73.41c-28.1,13.73 -55.49,27.43 -76.75,43.9c-21.24,-16.48 -48.66,-30.18 -76.74,-43.9c-42.49,-20.6 -87.02,-42.54 -117.16,-73.41c-38.31,-39.08 -56.9,-79 -56.9,-124.12c0,-38.36 15.1,-70.66 49.35,-113.88c2.72,-3.46 5.47,-6.88 5.47,-9.61c0,-2.73 -2.75,-8.25 -4.1,-10.97l-24,-52.16c-5.47,-11.64 -10.95,-22.57 -10.95,-34.28c0,-9.62 6.18,-16.48 14.38,-23.34l34.27,-30.84a4.2,4.2 0 0 0 0.68,-4.81l-10.95,-22.57c-1.38,-2.76 -1.38,-4.84 0.67,-6.19c33.58,-22.57 61.67,-29.5 102.1,-40.49c38.3,-10.29 72.64,-19.21 93.9,-32.93c21.25,13.73 55.49,22.57 93.87,32.93c40.42,10.99 67.84,19.21 102.1,40.49c2.04,1.35 2.04,3.43 0.67,6.19l-10.95,22.57a4.25,4.25 0 0 0 0.7,4.81l34.13,30.82c8.22,6.77 14.37,13.72 14.37,23.34c0,11.67 -5.47,22.56 -10.95,34.27l-23.92,52.16c-1.37,2.73 -4.12,8.24 -4.12,10.97c0,2.73 2.75,6.16 5.47,9.61c37.02,41.16 49.35,75.45 49.35,113.88c0,45.14 -18.5,85.07 -56.87,124.13l0.07,0.02zm32.12,-235.99c-6.15,-7.57 -9.57,-11 -9.57,-13.72c0,-2.73 2.05,-6.78 4.11,-11.67l20.54,-45.27c6.18,-13.73 11.66,-25.39 11.66,-39.77c0,-10.31 -4.11,-20.61 -14.38,-29.52l-29.47,-25.39a6.4,6.4 0 0 1 -1.37,-8.23l10.98,-24.7a3.61,3.61 0 0 0 -1.38,-4.78c-33.57,-22.56 -71.94,-36.38 -108.27,-46.68c-36.33,-9.59 -84.97,-23.31 -108.94,-41.84c-24,18.53 -72.65,31.6 -108.97,41.84c-36.33,10.25 -74.68,24.04 -108.16,46.67a3.57,3.57 0 0 0 -1.37,4.78l10.97,24.71a6.37,6.37 0 0 1 -1.35,8.24l-29.48,25.39c-10.27,9.03 -14.4,19.21 -14.4,29.52c0,14.38 5.47,26.04 11.65,39.76l20.55,45.28c2.07,4.8 4.12,8.91 4.12,11.67c0,2.76 -3.42,6.16 -9.59,13.72c-30.82,38.37 -43.16,69.97 -43.16,111.83c0,58.3 28.78,102.87 61.67,136.52c33.58,34.28 80.18,56.92 122.67,77.5c28.1,13.72 57.54,27.45 84.97,49.4c27.4,-21.96 56.87,-35.68 84.97,-49.4c42.47,-20.58 89.76,-43.22 122.64,-77.5c32.89,-33.65 61.67,-78.22 61.67,-136.51c0,-41.87 -12.32,-73.42 -43.17,-111.83" fill="#00003c" id="svg_56" stroke-width="7.28"/>
   <path d="m457.9,578.5a45.94,45.94 0 0 1 -15.83,19.59a45.82,45.82 0 0 1 -23.76,8.27c-31.97,2.64 -32.44,-35.36 -32.44,-35.36l0,-92.73l0.94,0a81.49,81.49 0 0 1 30.66,2.64c28.8,8.17 49.42,34.19 48.38,64.13a88.85,88.85 0 0 1 -7.95,33.45zm-72.11,-227.67c0,0 6.76,-17.91 32.15,-15.99c25.39,1.92 39.16,22.77 39.89,43.22c0.71,20.45 6.15,65.75 -45.99,83.9l-25.97,0l-0.07,-111.13zm94.29,168.41a82.29,82.29 0 0 0 -12.98,-27.51c-13.52,-18.23 -29.08,-24.19 -29.76,-24.42a93.74,93.74 0 0 0 10.59,-6.99a69.26,69.26 0 0 0 23.55,-32.62a98,98 0 0 0 2.43,-57.44c-11.27,-42.29 -41.39,-48.62 -41.39,-48.62c0,0 -35.04,-13.9 -59.15,16.68c-0.27,-0.42 -13.37,-20.6 -36.53,-10.01c-20.05,11.05 -8.52,28.54 -3.58,31.59c0,0 6.55,4.36 10.32,0c2.75,-3.24 0,-6.6 -1.55,-8.86c-2.89,-4.52 1.89,-9.55 8.6,-9.44c5.83,0 17.49,4.51 17.49,20.32l0,214.4c0,1.78 -1.83,13.22 -11.45,13c-9.62,-0.23 -13.12,-10.29 -7.62,-15.8a5.53,5.53 0 0 0 -1.71,-2.26c-1,-0.51 -15.77,-0.92 -14.04,14.77c1.74,15.68 20.51,23.27 38.6,13.4a49.79,49.79 0 0 0 44.12,25.17c31.67,0 51.55,-26.59 51.55,-26.59c0,0 25.42,-30.9 12.46,-78.47" fill="#00003c" id="svg_55" stroke-width="7.28"/>
   <path d="m347.15,558.82a124.26,124.26 0 0 0 80.44,24.66a104.3,104.3 0 0 0 54.75,-18.19c46.82,-32.72 25.89,-75.17 24.52,-79c0,0 -12.93,-29.5 -44.76,-40.46c0,0 -23.9,-8.04 -61.85,-10.81c-37.94,-2.78 -52.81,-19.02 -47.02,-38.95c5.79,-19.93 35.33,-28.92 53.6,-30.06a119.69,119.69 0 0 1 73.48,20.06c3.78,3.03 7.3,6.38 10.5,10.02c0,0 5.18,6.78 8.47,3.3c2.79,-3.04 -2.07,-7.3 -2.07,-7.3a39.69,39.69 0 0 1 -9.01,-22.57a115.27,115.27 0 0 1 -0.32,-17.01a41.3,41.3 0 0 1 1.27,-6.78c0.54,-1.92 0.99,-4.67 -1.79,-5.15c-2.25,-0.38 -3.35,2.26 -3.58,2.66a25.37,25.37 0 0 1 -27.33,11.82c-30.67,-6.65 -49.58,-6.33 -49.58,-6.33c0,0 -35.78,-2.48 -59.73,23.27a48.68,48.68 0 0 0 -12.8,42.13c5.71,28.79 35.45,39.38 66.07,39.07a148.82,148.82 0 0 1 36.05,4.02c6.61,1.52 13.09,3.57 19.37,6.13a57.68,57.68 0 0 1 33.8,36.68c4.37,15.28 2.77,35.79 -25.03,52.39c-51.34,30.68 -113.12,2.25 -139.01,-58.24a4.21,4.21 0 0 0 -5.63,-1.87c-3.27,1.35 -1.46,6 -1.46,6c0,0 9.62,17.36 7.77,31.03a37.65,37.65 0 0 1 -13.72,23.5c-2.66,2.43 -5.92,5.34 -3.37,7.88c2.55,2.53 5.22,1.13 9,-2.26l0.16,0a24.54,24.54 0 0 1 28.89,0.36" fill="#00003c" id="svg_54" stroke-width="7.28"/>
   <path d="m406.83,352.16l0,252.58a59.79,59.79 0 0 1 -5.81,26.45c-4.35,8.83 -11.56,17.66 -23.08,17.66c0,0 -13.52,1.15 -17.89,-7.38c-5.21,-10.02 3.54,-13.93 3.54,-13.93c0,0 6.09,-2.8 3.17,-7.52c-2.91,-4.71 -9.37,-2.26 -9.37,-2.26a27.05,27.05 0 0 0 -14.99,14.9c-4.95,11.6 3.21,30.97 25.36,33.08a49.32,49.32 0 0 0 45.27,-20.7c0,0 16.18,19.18 39.67,22.3c0,0 2.82,0.33 3.63,-0.86c0.81,-1.19 1,-3.15 -2.78,-5.77c-3.76,-2.62 -25.52,-15.16 -25.44,-37.08l0,-279.84a45.83,45.83 0 0 1 20.87,-38.88l0.56,-0.34a124.09,124.09 0 0 1 27.63,-11.01c0,0 5.38,-0.95 6.01,-3.61c0.63,-2.66 -0.93,-4.33 -4.5,-3.95a80.21,80.21 0 0 0 -20.28,4.29c-9.67,3.43 -21.34,10.33 -40.08,10.35c-14.47,0 -33.81,-5.1 -41.98,-7.45a50.29,50.29 0 0 1 -5.99,-2.26c-1.89,-0.84 -4.51,-1.72 -6.18,-0.61a3.95,3.95 0 0 0 -1.05,5.02a3.91,3.91 0 0 0 1.8,1.63c5.6,3.55 7.15,3.21 12.43,5.94a54.56,54.56 0 0 1 16.29,12.7a55.26,55.26 0 0 1 13.16,36.58" fill="#00003c" id="svg_53" stroke-width="7.28"/>
  </g>
 </g>
</svg>