<?xml version="1.0" encoding="UTF-8"?>
<!DOCTYPE svg PUBLIC "-//W3C//DTD SVG 1.1//EN" "http://www.w3.org/Graphics/SVG/1.1/DTD/svg11.dtd">
<!-- Creator: CorelDRAW 2021 (64 Bit) -->
<svg xmlns="http://www.w3.org/2000/svg" xml:space="preserve" width="660.453mm" height="608.801mm" version="1.1" style="shape-rendering:geometricPrecision; text-rendering:geometricPrecision; image-rendering:optimizeQuality; fill-rule:evenodd; clip-rule:evenodd"
viewBox="0 0 23339.01 21513.73"
 xmlns:xlink="http://www.w3.org/1999/xlink"
 xmlns:xodm="http://www.corel.com/coreldraw/odm/2003">
 <defs>
  <style type="text/css">
   <![CDATA[
    .fil0 {fill:#201E1E;fill-rule:nonzero}
   ]]>
  </style>
 </defs>
 <g id="Camada_x0020_1">
  <metadata id="CorelCorpID_0Corel-Layer"/>
  <g id="_2056160672272">
   <g>
    <path id="path28" class="fil0" d="M18368.98 5466.4l-2701.78 -4712.41c-263.9,-464.96 -766.55,-753.99 -1294.34,-753.99l-5403.57 0c-540.35,0 -1030.45,289.03 -1294.34,753.99l-2701.78 4712.41c-263.9,464.96 -263.9,1043.01 0,1507.97l2701.78 4712.41c263.9,464.96 766.55,753.99 1294.34,753.99l1960.36 -0 741.42 -1294.34 -2701.79 0c-75.4,0 -150.8,-37.7 -188.5,-113.1l-2701.78 -4712.41c-37.7,-62.83 -37.7,-150.8 0,-213.63l2701.78 -4712.41c37.7,-62.83 113.1,-113.1 188.5,-113.1l5403.57 0c75.4,0 150.8,37.7 188.5,113.1l2701.78 4712.41c37.7,62.83 37.7,150.8 0,213.63l-1570.8 2739.48 1482.84 0 1206.38 -2086.03c263.9,-464.96 263.9,-1043.01 -12.57,-1507.97l-0 0zm0 0l0 0 0 0z"/>
   </g>
   <g>
    <path id="path30" class="fil0" d="M13606.31 14526.8l-1206.38 -2086.03 -1482.84 0 1570.8 2739.48c37.7,62.83 37.7,150.8 0,213.63l-2701.79 4712.41c-37.7,62.83 -113.1,113.1 -188.5,113.1l-5403.56 -0c-75.4,0 -150.8,-37.7 -188.5,-113.1l-2701.79 -4712.41c-37.7,-62.83 -37.7,-150.8 0,-213.63l2701.78 -4712.41c37.7,-62.83 113.1,-113.1 188.5,-113.1l2701.79 0 -741.42 -1294.34 -1947.8 0c-540.35,0 -1030.45,289.03 -1294.34,753.99l-2714.35 4712.41c-263.9,464.96 -263.9,1043.01 0,1507.97l2701.78 4712.41c263.9,464.96 766.55,753.99 1294.34,753.99l5403.57 -0c540.35,0 1030.45,-289.03 1294.34,-753.99l2701.78 -4712.41c289.03,-464.96 289.03,-1043.01 12.57,-1507.97l0 0zm0 0l0 0 0 0z"/>
   </g>
   <g>
    <path id="path32" class="fil0" d="M23131.66 14526.8l-2701.79 -4699.85c-263.9,-464.96 -766.55,-753.99 -1294.34,-753.99l-5403.56 0c-540.35,0 -1030.45,289.03 -1294.34,753.99l-1507.97 2613.82 1482.84 -0 1130.98 -1972.93c37.7,-62.83 113.1,-113.1 188.5,-113.1l5403.57 0c75.4,0 150.8,37.7 188.5,113.1l2701.78 4712.41c37.7,62.83 37.7,150.8 0,213.63l-2701.78 4712.41c-37.7,62.83 -113.1,113.1 -188.5,113.1l-5403.56 -0c-75.4,0 -150.8,-37.7 -188.5,-113.1l-1130.98 -1960.36 -741.42 1294.34 766.55 1319.47c263.9,464.96 766.55,753.99 1294.34,753.99l5403.56 0.01c540.35,0 1030.45,-289.03 1294.34,-753.99l2701.78 -4712.41c276.46,-477.52 276.46,-1055.58 0,-1520.54l0 0zm0 0l0 0 0 0z"/>
   </g>
  </g>
 </g>
</svg>
